<svg width="67" height="50" viewBox="0 0 67 50" fill="none" xmlns="http://www.w3.org/2000/svg">
<path d="M62.5396 1.74103L63.5759 1.94621L64.1977 5.22916L65.6485 14.6676L66.6848 21.8491V23.0802L66.063 23.4906L56.3219 24.9268L46.788 26.3631H45.3372L44.9226 25.9528L44.5081 22.875V21.4387L39.3266 22.0543C39.3266 22.0543 38.5435 26.6131 37.2541 29.2357C37.1749 29.3968 37.0468 29.6461 37.0468 29.6461L38.9121 30.2616C38.9121 30.2616 40.4936 31.0381 41.3992 31.6979C42.1842 32.2699 42.59 32.6429 43.2646 33.3394C44.1833 34.288 44.6007 34.9133 45.3372 36.0068C46.1615 37.2307 46.4519 38.0202 47.2025 39.2897C47.6793 40.0962 48.446 41.3416 48.446 41.3416C48.446 41.3416 49.7977 40.7087 50.7259 40.5208C51.9947 40.264 52.8161 40.1077 54.042 40.5208C54.556 40.6941 54.8438 40.824 55.2856 41.1364C55.7513 41.4657 56.0769 41.6503 56.3219 42.1623C56.4986 42.5316 56.5291 43.1882 56.5291 43.1882L54.6638 44.4193L51.7622 46.0608L49.4823 47.4971L47.2025 48.7282C47.2025 48.7282 46.2099 49.3228 45.9589 49.3438C45.708 49.3647 5.3362 49.3438 5.3362 49.3438C5.3362 49.3438 5.13617 49.3258 5.12895 49.1386C5.12172 48.9514 5.12174 48.0515 5.12895 47.9075C5.13615 47.7635 5.3362 47.7023 5.3362 47.7023H45.3372C45.3372 47.7023 44.4875 46.3039 43.8863 45.4453C43.1301 44.3652 42.6885 43.7664 41.8138 42.7779C40.9086 41.755 40.4098 41.1519 39.3266 40.3157C38.3524 39.5635 37.7518 39.1916 36.6323 38.6742C35.7738 38.2774 35.2608 38.1197 34.3524 37.8534C33.7125 37.6658 33.3583 37.5111 32.6944 37.4431C32.2113 37.3936 32.3271 37.2739 31.4508 37.4431C30.5745 37.6123 30.3018 38.9622 28.7564 40.726C27.2111 42.4899 27.8928 41.7449 27.3056 42.3675C26.6807 43.0301 26.383 43.4688 25.6476 44.009C24.7755 44.6495 24.2278 45.042 23.1605 45.2401C22.4445 45.373 22.0127 45.3642 21.2951 45.2401C20.4364 45.0915 19.9987 44.8122 19.2226 44.4193C17.9827 43.7917 17.4243 43.2085 16.3209 42.3675C15.4094 41.6728 14.8678 41.3127 14.0411 40.5208C13.8765 40.3632 13.6266 40.1105 13.6266 40.1105C13.6266 40.1105 13.1141 40.2112 12.7975 40.3157C11.9021 40.6112 11.6056 41.2104 10.7249 41.5468C10.4861 41.638 10.3506 41.687 10.1032 41.7519C9.08613 42.0191 8.34747 42.2226 7.40879 41.7519C7.04776 41.5709 6.72653 41.5098 6.57976 41.1364C6.43008 40.7556 6.78702 40.1105 6.78702 40.1105L9.48138 36.6223L11.1395 34.3653C11.1395 34.3653 11.8485 32.929 12.383 32.7238C12.7678 32.5761 13.4193 32.929 13.4193 32.929L18.3935 36.0068L21.2951 37.8534L22.746 34.9809L24.404 30.0564L26.0621 23.4906L27.3056 18.5661C27.3056 18.5661 27.7542 17.1955 28.3419 16.5143C28.7525 16.0384 29.0541 15.8274 29.5855 15.4884C30.2555 15.0608 30.6804 14.8702 31.4508 14.6676C32.7025 14.3386 34.767 14.6676 34.767 14.6676L43.4718 15.4884C43.4718 15.4884 43.0778 13.1146 42.85 11.5899C42.5871 9.82985 42.3038 8.85341 42.2283 7.07582C42.1942 6.27523 42.2283 5.02397 42.2283 5.02397L43.0573 4.61361L51.5549 3.3825L62.5396 1.74103Z" fill="#212D3F"/>
<path d="M52.7986 16.1037C53.4204 15.9238 53.8027 15.6855 54.0421 16.1037C54.257 16.4792 53.858 16.7634 53.6276 17.1297C53.2332 17.7568 52.8218 17.9892 52.1768 18.3608C51.5791 18.7051 51.555 18.6992 50.5187 18.9763C49.4825 19.2535 46.9847 19.4976 44.7155 19.7971C41.322 20.2449 36.9378 20.6934 36.0106 20.823C35.0834 20.9526 34.9111 21.003 34.7671 21.2333C34.623 21.4637 34.6091 21.8977 34.9743 22.2593C35.3395 22.6208 36.8519 21.4729 37.2542 22.2593C37.5128 22.7647 37.0469 23.6956 37.0469 23.6956C37.0469 23.6956 35.5743 28.8827 35.3888 29.4407C35.2034 29.9987 35.2034 30.1607 35.3888 30.4666C35.5743 30.7726 36.3994 30.9668 37.0469 31.2874C38.1801 31.8483 38.909 32.0067 39.9485 32.7237C40.842 33.3399 41.262 33.7974 42.0211 34.5703C42.621 35.181 42.9502 35.5344 43.4719 36.2118C44.3304 37.3264 44.6395 38.0699 45.3373 39.2896C46.1937 40.7866 47.0281 43.0116 47.4099 43.1881C47.7916 43.3645 48.1371 43.4149 48.4461 43.3932C48.7552 43.3716 49.8021 42.6848 50.726 42.3673C51.2827 42.1761 51.5908 42.0182 52.1768 41.957C52.9057 41.8807 53.4498 41.7348 54.0421 42.1621C54.2271 42.2956 54.4312 42.3133 54.4567 42.5725C54.4821 42.8317 53.1961 43.3272 52.3841 43.8036C50.8554 44.7005 50.0212 45.2462 48.4461 46.0606C47.8045 46.3924 47.2099 46.9713 46.7881 46.8814C46.3663 46.7914 45.9407 45.4815 45.3373 44.6243C44.5133 43.4539 44.0153 42.8176 43.0574 41.7518C42.1444 40.7358 41.6407 40.1418 40.5703 39.2896C39.5206 38.4538 38.8684 38.0495 37.6687 37.4429C36.7316 36.9691 36.1716 36.7699 35.1816 36.417C34.7 36.2453 34.4342 36.1313 33.938 36.0066C32.6804 35.6905 31.823 35.3155 30.6219 35.8014C29.3459 36.3175 29.2072 37.4065 28.342 38.4688C27.5088 39.4919 27.1612 40.1627 26.2694 41.1362C25.7312 41.7238 25.462 42.0997 24.8186 42.5725C24.2947 42.9576 23.9479 43.0974 23.3678 43.3932C23.2069 43.4753 23.1224 43.5346 22.9533 43.5984C22.3482 43.8266 21.9308 43.7212 21.2952 43.5984C20.4071 43.4269 19.9981 43.0343 19.2226 42.5725C17.9878 41.837 17.4404 41.214 16.321 40.3155C15.339 39.5272 14.303 38.412 13.8339 38.2636C13.3648 38.1153 13.2921 38.1053 12.7976 38.2636C12.3031 38.422 11.6143 39.2738 10.725 39.6999C10.3327 39.8879 9.68874 40.1103 9.68874 40.1103C9.68874 40.1103 9.19422 40.2687 9.06697 40.1103C8.93971 39.9519 9.20511 39.6172 9.48148 39.2896C9.75785 38.962 12.1758 35.5962 12.1758 35.5962C12.1758 35.5962 12.5649 34.9087 12.7976 34.7755C13.0303 34.6423 13.3139 34.7791 13.6267 34.9807C13.9394 35.1822 16.4057 36.7314 18.1864 37.8533C19.0767 38.4142 19.5854 38.714 20.4662 39.2896C20.7098 39.4487 20.8158 39.5956 21.088 39.6999C21.5409 39.8735 21.997 39.8979 22.3315 39.6999C22.6661 39.5019 23.7031 37.1208 24.4041 35.391C25.0713 33.7449 25.3338 32.7792 25.8549 31.0822C26.7057 28.3116 27.0186 26.7119 27.7203 23.9007C28.2195 21.9008 28.7566 19.4335 28.9638 18.7711C29.1711 18.1088 29.4313 17.634 30.0001 17.1297C30.5394 16.6515 30.9662 16.5197 31.6582 16.3089C32.8959 15.9319 34.9743 16.3089 34.9743 16.3089C34.9743 16.3089 40.1387 17.0483 43.4719 17.1297C44.6047 17.1573 44.6282 17.1297 46.3736 17.1297C48.1189 17.1297 52.1768 16.2837 52.7986 16.1037Z" fill="#04FCF8"/>
<path d="M61.0887 3.58704H62.125C62.125 3.58704 62.6611 6.20767 62.954 7.8959C63.3281 10.0514 63.4604 11.2722 63.7831 13.4359C64.1894 16.16 64.7428 17.6595 64.8194 20.4121C64.8372 21.0529 64.8194 22.0536 64.8194 22.0536L60.4669 22.6692L46.5806 24.721L46.3733 24.5158L45.9588 21.2329C45.9588 21.2329 47.2185 20.9641 48.0314 20.8225C49.1588 20.6262 50.0276 20.6029 50.933 20.4121C51.7857 20.2325 52.2596 20.0379 53.0056 19.5914C53.8397 19.0922 54.4819 18.4832 54.8709 17.9499C55.2948 17.3689 55.5727 16.8232 55.7 16.3085C55.8154 15.8415 55.9172 15.5074 55.7 15.0774C55.5464 14.7733 55.3947 14.5936 55.0782 14.4618C54.4819 14.2134 53.5729 14.4618 52.7984 14.667C51.6152 14.9804 49.6895 15.0774 49.6895 15.0774C49.6895 15.0774 50.3211 14.4521 50.7258 14.0514C51.1305 13.6508 51.6639 13.3135 51.7621 13.0255C51.8602 12.7375 51.8788 12.0871 51.5548 11.9996C51.1566 11.8921 50.875 11.9989 50.5185 12.2048C49.6895 12.6835 48.3794 14.0459 47.8241 14.4618C47.2689 14.8777 47.0474 15.3151 46.3733 15.4877C45.9032 15.6081 45.1298 15.4877 45.1298 15.4877C45.1298 15.4877 44.3439 11.6309 44.0935 9.12701C43.9816 8.00781 43.8862 6.25443 43.8862 6.25443L50.3113 5.22851L61.0887 3.58704Z" fill="#04FCF8"/>
<path d="M29.5856 0.71473C30.2266 0.624468 30.6026 0.624468 31.2436 0.71473C32.1816 0.84679 32.716 1.045 33.5235 1.53547C34.1595 1.92179 34.5904 2.13309 34.9743 2.76657C35.0674 2.92021 35.1815 3.17694 35.1815 3.17694C35.1815 3.17694 36.687 2.84293 37.6687 2.76657C38.5563 2.69753 39.4831 2.33462 39.9485 2.76657C40.4139 3.19852 40.0892 2.87954 40.1558 2.97176C40.391 3.29778 40.363 3.77087 40.1558 3.99768C39.9485 4.22448 39.0321 4.41646 38.2904 4.61323C37.4931 4.82474 36.2178 5.0236 36.2178 5.0236C36.2178 5.0236 36.3622 5.51987 36.4251 5.84433C36.6385 6.94607 36.6392 7.61531 36.4251 8.71691C36.2461 9.63791 36.108 10.1848 35.5961 10.9739C35.1013 11.7368 34.6909 12.0994 33.938 12.6154C33.3428 13.0234 32.2799 13.4362 32.2799 13.4362C32.2799 13.4362 30.2106 13.7826 28.9638 13.4362C28.0925 13.194 27.6134 12.9501 26.8912 12.4102C26.1134 11.8288 25.7374 11.3893 25.2331 10.5636C24.7821 9.82506 24.5959 9.3536 24.4041 8.51173C24.1369 7.33924 24.1096 6.60002 24.4041 5.43397C24.6675 4.39102 24.9643 3.80729 25.6476 2.97176C26.189 2.30974 26.569 1.97545 27.3057 1.53547C28.1169 1.05101 28.6476 0.84679 29.5856 0.71473Z" fill="#212D3F"/>
<path d="M34.1452 5.63959H34.5598L34.767 6.04996C34.767 6.04996 35.0226 7.58449 34.767 8.51217C34.5765 9.20361 34.3708 9.57915 33.938 10.1536C33.4236 10.8364 33.0684 11.249 32.2799 11.5899C32.0454 11.6913 31.9058 11.7312 31.6581 11.7951C30.7183 12.0378 30.0961 12.0882 29.171 11.7951C28.3372 11.531 27.8659 11.2301 27.3057 10.564C27.0037 10.205 26.6715 10.0052 26.6839 9.53809C26.6907 9.28478 26.8912 8.92253 26.8912 8.92253L32.6944 6.25514L34.1452 5.63959Z" fill="#04FCF8"/>
<path d="M10.3105 13.0256C13.467 12.9911 17.7586 12.9837 18.3936 13.0256C18.6662 13.0436 18.7756 13.3687 18.848 13.5837C18.9389 13.8537 18.7571 14.3035 18.7571 14.3035L18.4844 14.5735C18.0298 14.75 16.628 14.8723 15.492 14.8723C9.93954 14.8723 2.93997 15.1134 1.19112 14.8723C0.746269 14.8109 0.614963 14.0124 0.849226 13.5837C0.958156 13.3843 1.17129 13.2595 1.39838 13.2308C4.30365 12.8637 6.82938 13.0637 10.3105 13.0256Z" fill="#212D3F"/>
<path d="M5.12864 19.1813C8.21207 19.1813 19.015 19.1813 19.015 19.1813C19.015 19.1813 19.3307 19.3872 19.4295 19.5916C19.6076 19.9602 19.5298 20.3451 19.2222 20.6176C19.0874 20.737 18.8077 20.8228 18.8077 20.8228C18.8077 20.8228 12.7452 21.0052 8.8593 21.0279C7.32148 21.0369 5.2123 21.143 4.92138 21.0279C4.75779 20.9633 4.60564 20.822 4.50687 20.6176C4.3288 20.249 4.35052 19.8656 4.57597 19.5234C4.70103 19.3335 4.89971 19.1813 5.12864 19.1813Z" fill="#212D3F"/>
<path d="M29.1711 2.561C30.111 2.31829 30.7338 2.26616 31.6583 2.561C32.2794 2.75909 32.7563 3.05415 33.1091 3.38174C33.4618 3.70933 33.5236 3.99729 33.5236 3.99729L29.5857 6.04913L26.684 7.48542C26.684 7.48542 26.4586 7.68702 26.0623 7.48542C25.6659 7.28383 25.9218 6.46972 26.0623 5.84395C26.2193 5.14432 26.4585 4.77696 26.8913 4.20248C27.4057 3.51971 27.7609 3.10711 28.5494 2.76619C28.7839 2.66477 28.9235 2.62496 29.1711 2.561Z" fill="#04FCF8"/>
<path d="M23.7824 16.3081C24.0297 16.1933 24.7569 16.373 24.8478 16.463C24.9288 16.5431 25.0009 16.5954 25.026 16.7184C25.0747 16.9576 25.0288 18.1152 24.8187 18.9755C24.5751 19.973 23.2115 26.7221 22.7461 27.388C22.6159 27.5744 22.5381 27.7006 22.3316 27.7984C21.9593 27.9747 21.2953 27.5932 21.2953 27.5932C21.2953 27.5932 21.1015 27.5006 21.0881 27.388C21.0299 26.9025 21.2198 26.2725 21.2953 25.7465C21.7156 22.821 22.7018 19.1631 22.9534 18.3599C23.1808 17.6338 23.4843 16.7332 23.5752 16.5133C23.6185 16.4084 23.6788 16.3562 23.7824 16.3081Z" fill="#212D3F"/>
<path d="M14.8698 6.87102C17.1356 6.82365 19.3932 6.65504 20.6731 6.87102C21.0116 6.92814 21.1998 7.1599 21.2948 7.48657C21.4155 7.90121 21.2847 8.35156 20.8803 8.51249C20.1204 8.8149 17.9762 8.67168 16.1134 8.71768C13.605 8.77961 10.524 8.89033 9.68834 8.71768C9.57629 8.69453 9.43006 8.56244 9.39386 8.45494C9.30296 8.18496 9.1897 7.66601 9.48108 7.28139C9.54976 7.19073 9.60447 7.15333 9.68834 7.0762C10.0302 6.76187 12.8452 6.91334 14.8698 6.87102Z" fill="#212D3F"/>
</svg>
