<svg width="190" height="50" viewBox="0 0 190 50" fill="none" xmlns="http://www.w3.org/2000/svg">
<path d="M62.5396 1.74072L63.5759 1.94591L64.1977 5.22885L65.6485 14.6673L66.6848 21.8488V23.0799L66.063 23.4902L56.3219 24.9265L46.788 26.3628H45.3372L44.9226 25.9525L44.5081 22.8747V21.4384L39.3266 22.054C39.3266 22.054 38.5435 26.6128 37.2541 29.2354C37.1749 29.3965 37.0468 29.6458 37.0468 29.6458L38.9121 30.2613C38.9121 30.2613 40.4936 31.0378 41.3992 31.6976C42.1842 32.2695 42.59 32.6426 43.2646 33.3391C44.1833 34.2877 44.6007 34.913 45.3372 36.0065C46.1615 37.2303 46.4519 38.0199 47.2025 39.2894C47.6793 40.0959 48.446 41.3413 48.446 41.3413C48.446 41.3413 49.7977 40.7084 50.7259 40.5205C51.9947 40.2637 52.8161 40.1074 54.042 40.5205C54.556 40.6938 54.8438 40.8237 55.2856 41.1361C55.7513 41.4654 56.0769 41.6499 56.3219 42.162C56.4986 42.5313 56.5291 43.1879 56.5291 43.1879L54.6638 44.419L51.7622 46.0605L49.4823 47.4968L47.2025 48.7279C47.2025 48.7279 46.2099 49.3225 45.9589 49.3434C45.708 49.3644 5.3362 49.3434 5.3362 49.3434C5.3362 49.3434 5.13617 49.3254 5.12895 49.1383C5.12172 48.9511 5.12174 48.0512 5.12895 47.9072C5.13615 47.7632 5.3362 47.702 5.3362 47.702H45.3372C45.3372 47.702 44.4875 46.3036 43.8863 45.445C43.1301 44.3648 42.6885 43.7661 41.8138 42.7776C40.9086 41.7547 40.4098 41.1516 39.3266 40.3153C38.3524 39.5632 37.7518 39.1913 36.6323 38.6739C35.7738 38.2771 35.2608 38.1194 34.3524 37.8531C33.7125 37.6655 33.3583 37.5108 32.6944 37.4428C32.2113 37.3933 32.3271 37.2736 31.4508 37.4428C30.5745 37.612 30.3018 38.9619 28.7564 40.7257C27.2111 42.4896 27.8928 41.7446 27.3056 42.3672C26.6807 43.0298 26.383 43.4685 25.6476 44.0087C24.7755 44.6492 24.2278 45.0416 23.1605 45.2398C22.4445 45.3727 22.0127 45.3639 21.2951 45.2398C20.4364 45.0912 19.9987 44.8119 19.2226 44.419C17.9827 43.7914 17.4243 43.2082 16.3209 42.3672C15.4094 41.6724 14.8678 41.3124 14.0411 40.5205C13.8765 40.3629 13.6266 40.1102 13.6266 40.1102C13.6266 40.1102 13.1141 40.2109 12.7975 40.3153C11.9021 40.6109 11.6056 41.2101 10.7249 41.5465C10.4861 41.6377 10.3506 41.6867 10.1032 41.7516C9.08613 42.0188 8.34747 42.2223 7.40879 41.7516C7.04776 41.5706 6.72653 41.5095 6.57976 41.1361C6.43008 40.7553 6.78702 40.1102 6.78702 40.1102L9.48138 36.622L11.1395 34.365C11.1395 34.365 11.8485 32.9287 12.383 32.7235C12.7678 32.5758 13.4193 32.9287 13.4193 32.9287L18.3935 36.0065L21.2951 37.8531L22.746 34.9806L24.404 30.0561L26.0621 23.4902L27.3056 18.5658C27.3056 18.5658 27.7542 17.1952 28.3419 16.514C28.7525 16.0381 29.0541 15.8271 29.5855 15.4881C30.2555 15.0605 30.6804 14.8699 31.4508 14.6673C32.7025 14.3383 34.767 14.6673 34.767 14.6673L43.4718 15.4881C43.4718 15.4881 43.0778 13.1143 42.85 11.5896C42.5871 9.82954 42.3038 8.8531 42.2283 7.07551C42.1942 6.27493 42.2283 5.02367 42.2283 5.02367L43.0573 4.6133L51.5549 3.3822L62.5396 1.74072Z" fill="white"/>
<path d="M52.7986 16.1037C53.4204 15.9238 53.8027 15.6855 54.0421 16.1037C54.257 16.4792 53.858 16.7634 53.6276 17.1297C53.2332 17.7568 52.8218 17.9892 52.1768 18.3608C51.5791 18.7051 51.555 18.6992 50.5187 18.9763C49.4825 19.2535 46.9847 19.4976 44.7155 19.7971C41.322 20.2449 36.9378 20.6934 36.0106 20.823C35.0834 20.9526 34.9111 21.003 34.7671 21.2333C34.623 21.4637 34.6091 21.8977 34.9743 22.2593C35.3395 22.6208 36.8519 21.4729 37.2542 22.2593C37.5128 22.7647 37.0469 23.6956 37.0469 23.6956C37.0469 23.6956 35.5743 28.8827 35.3888 29.4407C35.2034 29.9987 35.2034 30.1607 35.3888 30.4666C35.5743 30.7726 36.3994 30.9668 37.0469 31.2874C38.1801 31.8483 38.909 32.0067 39.9485 32.7237C40.842 33.3399 41.262 33.7974 42.0211 34.5703C42.621 35.181 42.9502 35.5344 43.4719 36.2118C44.3304 37.3264 44.6395 38.0699 45.3373 39.2896C46.1937 40.7866 47.0281 43.0116 47.4099 43.1881C47.7916 43.3645 48.1371 43.4149 48.4461 43.3932C48.7552 43.3716 49.8021 42.6848 50.726 42.3673C51.2827 42.1761 51.5908 42.0182 52.1768 41.957C52.9057 41.8807 53.4498 41.7348 54.0421 42.1621C54.2271 42.2956 54.4312 42.3133 54.4567 42.5725C54.4821 42.8317 53.1961 43.3272 52.3841 43.8036C50.8554 44.7005 50.0212 45.2462 48.4461 46.0606C47.8045 46.3924 47.2099 46.9713 46.7881 46.8814C46.3663 46.7914 45.9407 45.4815 45.3373 44.6243C44.5133 43.4539 44.0153 42.8176 43.0574 41.7518C42.1444 40.7358 41.6407 40.1418 40.5703 39.2896C39.5206 38.4538 38.8684 38.0495 37.6687 37.4429C36.7316 36.9691 36.1716 36.7699 35.1816 36.417C34.7 36.2453 34.4342 36.1313 33.938 36.0066C32.6804 35.6905 31.823 35.3155 30.6219 35.8014C29.3459 36.3175 29.2072 37.4065 28.342 38.4688C27.5088 39.4919 27.1612 40.1627 26.2694 41.1362C25.7312 41.7238 25.462 42.0997 24.8186 42.5725C24.2947 42.9576 23.9479 43.0974 23.3678 43.3932C23.2069 43.4753 23.1224 43.5346 22.9533 43.5984C22.3482 43.8266 21.9308 43.7212 21.2952 43.5984C20.4071 43.4269 19.9981 43.0343 19.2226 42.5725C17.9878 41.837 17.4404 41.214 16.321 40.3155C15.339 39.5272 14.303 38.412 13.8339 38.2636C13.3648 38.1153 13.2921 38.1053 12.7976 38.2636C12.3031 38.422 11.6143 39.2738 10.725 39.6999C10.3327 39.8879 9.68874 40.1103 9.68874 40.1103C9.68874 40.1103 9.19422 40.2687 9.06697 40.1103C8.93971 39.9519 9.20511 39.6172 9.48148 39.2896C9.75785 38.962 12.1758 35.5962 12.1758 35.5962C12.1758 35.5962 12.5649 34.9087 12.7976 34.7755C13.0303 34.6423 13.3139 34.7791 13.6267 34.9807C13.9394 35.1822 16.4057 36.7314 18.1864 37.8533C19.0767 38.4142 19.5854 38.714 20.4662 39.2896C20.7098 39.4487 20.8158 39.5956 21.088 39.6999C21.5409 39.8735 21.997 39.8979 22.3315 39.6999C22.6661 39.5019 23.7031 37.1208 24.4041 35.391C25.0713 33.7449 25.3338 32.7792 25.8549 31.0822C26.7057 28.3116 27.0186 26.7119 27.7203 23.9007C28.2195 21.9008 28.7566 19.4335 28.9638 18.7711C29.1711 18.1088 29.4313 17.634 30.0001 17.1297C30.5394 16.6515 30.9662 16.5197 31.6582 16.3089C32.8959 15.9319 34.9743 16.3089 34.9743 16.3089C34.9743 16.3089 40.1387 17.0483 43.4719 17.1297C44.6047 17.1573 44.6282 17.1297 46.3736 17.1297C48.1189 17.1297 52.1768 16.2837 52.7986 16.1037Z" fill="#212D3F"/>
<path d="M61.0887 3.58691H62.125C62.125 3.58691 62.6611 6.20755 62.954 7.89578C63.3281 10.0513 63.4604 11.2721 63.7831 13.4358C64.1894 16.1599 64.7428 17.6594 64.8194 20.412C64.8372 21.0528 64.8194 22.0535 64.8194 22.0535L60.4669 22.669L46.5806 24.7209L46.3733 24.5157L45.9588 21.2328C45.9588 21.2328 47.2185 20.964 48.0314 20.8224C49.1588 20.626 50.0276 20.6028 50.933 20.412C51.7857 20.2323 52.2596 20.0378 53.0056 19.5913C53.8397 19.092 54.4819 18.4831 54.8709 17.9498C55.2948 17.3688 55.5727 16.8231 55.7 16.3083C55.8154 15.8413 55.9172 15.5072 55.7 15.0772C55.5464 14.7732 55.3947 14.5935 55.0782 14.4617C54.4819 14.2133 53.5729 14.4617 52.7984 14.6669C51.6152 14.9803 49.6895 15.0772 49.6895 15.0772C49.6895 15.0772 50.3211 14.452 50.7258 14.0513C51.1305 13.6507 51.6639 13.3134 51.7621 13.0254C51.8602 12.7374 51.8788 12.087 51.5548 11.9995C51.1566 11.8919 50.875 11.9988 50.5185 12.2047C49.6895 12.6834 48.3794 14.0457 47.8241 14.4617C47.2689 14.8776 47.0474 15.315 46.3733 15.4876C45.9032 15.608 45.1298 15.4876 45.1298 15.4876C45.1298 15.4876 44.3439 11.6308 44.0935 9.12689C43.9816 8.00769 43.8862 6.25431 43.8862 6.25431L50.3113 5.22839L61.0887 3.58691Z" fill="#212D3F"/>
<path d="M29.5856 0.714669C30.2266 0.624407 30.6026 0.624407 31.2436 0.714669C32.1816 0.846729 32.716 1.04494 33.5235 1.53541C34.1595 1.92173 34.5904 2.13303 34.9743 2.76651C35.0674 2.92015 35.1815 3.17688 35.1815 3.17688C35.1815 3.17688 36.687 2.84287 37.6687 2.76651C38.5563 2.69747 39.4831 2.33456 39.9485 2.76651C40.4139 3.19846 40.0892 2.87948 40.1558 2.97169C40.391 3.29771 40.363 3.77081 40.1558 3.99762C39.9485 4.22442 39.0321 4.4164 38.2904 4.61317C37.4931 4.82468 36.2178 5.02354 36.2178 5.02354C36.2178 5.02354 36.3622 5.5198 36.4251 5.84427C36.6385 6.94601 36.6392 7.61525 36.4251 8.71685C36.2461 9.63784 36.108 10.1847 35.5961 10.9739C35.1013 11.7367 34.6909 12.0993 33.938 12.6154C33.3428 13.0233 32.2799 13.4361 32.2799 13.4361C32.2799 13.4361 30.2106 13.7826 28.9638 13.4361C28.0925 13.194 27.6134 12.95 26.8912 12.4102C26.1134 11.8287 25.7374 11.3892 25.2331 10.5635C24.7821 9.825 24.5959 9.35354 24.4041 8.51167C24.1369 7.33918 24.1096 6.59996 24.4041 5.4339C24.6675 4.39095 24.9643 3.80723 25.6476 2.97169C26.189 2.30968 26.569 1.97539 27.3057 1.53541C28.1169 1.05095 28.6476 0.846729 29.5856 0.714669Z" fill="white"/>
<path d="M34.1452 5.63965H34.5598L34.767 6.05002C34.767 6.05002 35.0226 7.58456 34.767 8.51223C34.5765 9.20367 34.3708 9.57921 33.938 10.1537C33.4236 10.8365 33.0684 11.2491 32.2799 11.59C32.0454 11.6914 31.9058 11.7312 31.6581 11.7952C30.7183 12.0379 30.0961 12.0882 29.171 11.7952C28.3372 11.531 27.8659 11.2301 27.3057 10.5641C27.0037 10.205 26.6715 10.0052 26.6839 9.53815C26.6907 9.28484 26.8912 8.9226 26.8912 8.9226L32.6944 6.2552L34.1452 5.63965Z" fill="#212D3F"/>
<path d="M10.3105 13.0253C13.467 12.9908 17.7586 12.9834 18.3936 13.0253C18.6662 13.0433 18.7756 13.3684 18.848 13.5834C18.9389 13.8533 18.7571 14.3032 18.7571 14.3032L18.4844 14.5732C18.0298 14.7497 16.628 14.872 15.492 14.872C9.93954 14.872 2.93997 15.1131 1.19112 14.872C0.746269 14.8106 0.614963 14.0121 0.849226 13.5834C0.958156 13.384 1.17129 13.2592 1.39838 13.2305C4.30365 12.8634 6.82938 13.0634 10.3105 13.0253Z" fill="white"/>
<path d="M5.12864 19.1812C8.21207 19.1811 19.015 19.1812 19.015 19.1812C19.015 19.1812 19.3307 19.3871 19.4295 19.5915C19.6076 19.9601 19.5298 20.345 19.2222 20.6174C19.0874 20.7369 18.8077 20.8226 18.8077 20.8226C18.8077 20.8226 12.7452 21.0051 8.8593 21.0278C7.32148 21.0368 5.2123 21.1428 4.92138 21.0278C4.75779 20.9631 4.60564 20.8219 4.50687 20.6174C4.3288 20.2488 4.35052 19.8655 4.57597 19.5232C4.70103 19.3334 4.89971 19.1812 5.12864 19.1812Z" fill="white"/>
<path d="M29.1711 2.56094C30.111 2.31823 30.7338 2.2661 31.6583 2.56094C32.2794 2.75903 32.7563 3.05409 33.1091 3.38168C33.4618 3.70927 33.5236 3.99723 33.5236 3.99723L29.5857 6.04907L26.684 7.48536C26.684 7.48536 26.4586 7.68696 26.0623 7.48536C25.6659 7.28377 25.9218 6.46966 26.0623 5.84389C26.2193 5.14426 26.4585 4.7769 26.8913 4.20242C27.4057 3.51965 27.7609 3.10705 28.5494 2.76613C28.7839 2.66471 28.9235 2.6249 29.1711 2.56094Z" fill="#212D3F"/>
<path d="M23.7824 16.3081C24.0297 16.1933 24.7569 16.3731 24.8478 16.463C24.9288 16.5431 25.0009 16.5954 25.026 16.7185C25.0747 16.9577 25.0288 18.1153 24.8187 18.9755C24.5751 19.9731 23.2115 26.7222 22.7461 27.3881C22.6159 27.5745 22.5381 27.7007 22.3316 27.7985C21.9593 27.9747 21.2953 27.5933 21.2953 27.5933C21.2953 27.5933 21.1015 27.5006 21.0881 27.3881C21.0299 26.9025 21.2198 26.2726 21.2953 25.7466C21.7156 22.821 22.7018 19.1631 22.9534 18.36C23.1808 17.6339 23.4843 16.7333 23.5752 16.5133C23.6185 16.4084 23.6788 16.3563 23.7824 16.3081Z" fill="white"/>
<path d="M14.8698 6.87108C17.1356 6.82371 19.3932 6.6551 20.6731 6.87108C21.0116 6.9282 21.1998 7.15996 21.2948 7.48663C21.4155 7.90127 21.2847 8.35162 20.8803 8.51255C20.1204 8.81496 17.9762 8.67175 16.1134 8.71774C13.605 8.77967 10.524 8.89039 9.68834 8.71774C9.57629 8.69459 9.43006 8.5625 9.39386 8.455C9.30296 8.18502 9.1897 7.66607 9.48108 7.28145C9.54976 7.19079 9.60447 7.15339 9.68834 7.07627C10.0302 6.76193 12.8452 6.91341 14.8698 6.87108Z" fill="white"/>
<path d="M148.864 35.5458V2.10114H170.586V6.67656H153.798V35.5458H148.864Z" fill="white"/>
<path d="M170.586 6.67645V2.10109L148.864 2.10114V35.5458L153.799 35.5458V6.67645H170.586ZM172.061 8.13057H155.274V36.9999H147.389V0.646973H172.061V8.13057Z" fill="black" fill-opacity="0.02"/>
<path d="M142.963 35.5458H137.958V10.6713L121.218 35.5458H116.213V2.10114H121.218V26.9524L137.958 2.10114H142.963V35.5458Z" fill="white"/>
<path d="M137.958 2.10109L121.218 26.9523V2.10109L116.213 2.10114V35.5458L121.218 35.5458L137.958 10.6713V35.5458L142.963 35.5458V2.10114L137.958 2.10109ZM144.439 36.9999H136.483V15.4937L122.01 36.9999H114.737V0.646973H122.693V22.1335L137.167 0.646973H144.439V36.9999Z" fill="black" fill-opacity="0.02"/>
<path d="M76.7619 35.5458V2.10114H81.2243L93.549 27.2543L105.803 2.10114H110.313V35.5226H105.638V12.6455L94.6587 35.5458H92.4157L81.4131 12.6455V35.5458H76.7619Z" fill="white"/>
<path d="M110.313 2.10114L105.803 2.10109L93.549 27.2542L81.2244 2.10109L76.7619 2.10114V35.5458L81.4131 35.5458V12.6454L92.4158 35.5458H94.6586L105.638 12.6455L105.638 35.5225H110.313L110.313 2.10114ZM111.788 36.9766H104.162V19.1259L95.5933 36.9999H91.482L82.8883 19.1131V36.9999H75.2866V0.646973H82.1501L93.545 23.9032L104.875 0.646973H111.788V36.9766Z" fill="black" fill-opacity="0.02"/>
<path d="M188.825 40.4098V46.0604H187.992V41.6602L184.545 46.0604H183.823V40.4098H184.656V44.7733L188.108 40.4098H188.825Z" fill="white"/>
<path d="M188.108 40.4098L184.656 44.7733V40.4098H183.823V46.0604H184.545L187.992 41.6602V46.0604H188.825V40.4098H188.108ZM189.265 46.4892H187.552V42.9294L184.763 46.4892H183.383V39.981H185.096V43.5141L187.892 39.981H189.265V46.4892Z" fill="white"/>
<path d="M181.343 46.0604V43.9571C181.134 44.0513 180.876 44.1332 180.569 44.203C180.262 44.2727 179.932 44.3076 179.579 44.3076C178.943 44.3076 178.426 44.1803 178.03 43.9257C177.635 43.6711 177.376 43.3031 177.256 42.8217C177.217 42.6787 177.19 42.527 177.175 42.3665C177.163 42.2061 177.155 42.0613 177.151 41.9323C177.147 41.8032 177.145 41.7108 177.145 41.655V40.4098H178.007V41.655C178.007 41.7701 178.011 41.9009 178.019 42.0474C178.027 42.1939 178.044 42.3369 178.071 42.4764C178.149 42.8566 178.324 43.1444 178.595 43.3397C178.871 43.535 179.257 43.6327 179.754 43.6327C180.064 43.6327 180.357 43.5978 180.633 43.528C180.913 43.4548 181.149 43.3571 181.343 43.2351V40.4098H182.199V46.0604H181.343Z" fill="white"/>
<path d="M178.007 41.655V40.4098H177.145V41.655L177.147 41.7661C177.148 41.8124 177.149 41.8677 177.151 41.9323C177.155 42.0613 177.163 42.2061 177.175 42.3665C177.19 42.527 177.217 42.6787 177.256 42.8217C177.376 43.3031 177.635 43.6711 178.03 43.9257C178.426 44.1803 178.943 44.3076 179.579 44.3076C179.91 44.3076 180.221 44.2769 180.511 44.2156L180.569 44.203C180.876 44.1332 181.134 44.0513 181.343 43.9571V46.0604H182.199V40.4098H181.343V43.2351C181.149 43.3571 180.913 43.4548 180.633 43.528L180.581 43.5407C180.321 43.602 180.045 43.6327 179.754 43.6327L179.754 43.2039C180.029 43.2039 180.284 43.1731 180.519 43.1138C180.666 43.0754 180.793 43.0308 180.903 42.9815V39.981H182.64V46.4892H180.903V44.5628C180.827 44.583 180.749 44.6023 180.669 44.6206C180.326 44.6986 179.962 44.7364 179.579 44.7364C178.885 44.7364 178.276 44.5978 177.788 44.2835C177.292 43.9646 176.973 43.5013 176.828 42.9231L176.828 42.9231C176.784 42.7579 176.753 42.5856 176.736 42.4067L176.736 42.4018L176.735 42.3968C176.723 42.2318 176.715 42.081 176.711 41.9448C176.707 41.8156 176.705 41.7177 176.705 41.655V39.981H178.448V41.655C178.448 41.7611 178.451 41.8843 178.459 42.0253C178.465 42.1524 178.48 42.2754 178.504 42.3947C178.564 42.6879 178.688 42.8729 178.855 42.9935C179.028 43.1158 179.31 43.2039 179.754 43.2039L179.754 43.6327C179.257 43.6327 178.871 43.535 178.595 43.3397C178.324 43.1444 178.149 42.8566 178.071 42.4764C178.047 42.3543 178.031 42.2296 178.022 42.1021L178.019 42.0474C178.013 41.9375 178.009 41.8365 178.008 41.7443L178.007 41.655Z" fill="white"/>
<path d="M172.823 46.217C172.35 46.217 171.952 46.1403 171.63 45.9868C171.311 45.8334 171.073 45.6293 170.913 45.3747C170.754 45.1201 170.675 44.8428 170.675 44.5428C170.675 44.2358 170.743 43.9742 170.879 43.758C171.018 43.5382 171.207 43.3586 171.443 43.2191C171.684 43.0796 171.962 42.9732 172.276 42.8999C172.594 42.8302 172.945 42.7691 173.33 42.7168C173.718 42.661 174.096 42.6139 174.465 42.5755C174.838 42.5337 175.164 42.4936 175.443 42.4552L175.14 42.6226C175.152 42.0646 175.032 41.6512 174.78 41.3826C174.527 41.1141 174.089 40.9798 173.464 40.9798C173.033 40.9798 172.668 41.067 172.369 41.2414C172.074 41.4158 171.866 41.6913 171.746 42.068L170.913 41.8483C171.057 41.3425 171.346 40.9501 171.781 40.6711C172.216 40.392 172.781 40.2525 173.475 40.2525C174.05 40.2525 174.537 40.3502 174.937 40.5455C175.34 40.7374 175.626 41.0164 175.793 41.3826C175.87 41.5466 175.921 41.7297 175.944 41.932C175.967 42.1343 175.979 42.3401 175.979 42.5494V46.0601H175.216V44.6422L175.437 44.7259C175.224 45.2108 174.892 45.5805 174.442 45.8351C173.992 46.0897 173.452 46.217 172.823 46.217ZM172.922 45.5526C173.322 45.5526 173.671 45.4881 173.97 45.359C174.269 45.2299 174.51 45.0538 174.692 44.8306C174.875 44.6038 174.993 44.3492 175.047 44.0667C175.094 43.8853 175.119 43.6865 175.123 43.4702C175.127 43.2505 175.129 43.0865 175.129 42.9784L175.455 43.1301C175.164 43.165 174.847 43.1999 174.506 43.2348C174.168 43.2697 173.834 43.3098 173.504 43.3551C173.178 43.4005 172.883 43.4545 172.619 43.5173C172.441 43.5627 172.268 43.6272 172.101 43.7109C171.934 43.7911 171.797 43.8993 171.688 44.0353C171.583 44.1713 171.531 44.3405 171.531 44.5428C171.531 44.7067 171.575 44.8654 171.665 45.0189C171.758 45.1724 171.905 45.2997 172.107 45.4008C172.313 45.502 172.584 45.5526 172.922 45.5526Z" fill="white"/>
<path d="M175.979 42.5494C175.979 42.3663 175.97 42.1858 175.952 42.0081L175.944 41.932C175.921 41.7297 175.87 41.5466 175.793 41.3826C175.626 41.0164 175.34 40.7374 174.937 40.5455C174.562 40.3624 174.11 40.2651 173.582 40.2537L173.475 40.2525C172.781 40.2525 172.216 40.392 171.781 40.6711L171.741 40.6976C171.328 40.9747 171.053 41.3583 170.913 41.8483L171.746 42.068C171.866 41.6913 172.074 41.4158 172.369 41.2414C172.668 41.067 173.033 40.9798 173.464 40.9798L173.522 40.9801C174.116 40.9883 174.535 41.1225 174.78 41.3826C175.012 41.6303 175.133 42.0011 175.141 42.4949C174.936 42.521 174.711 42.548 174.465 42.5755L174.326 42.5904C174.002 42.6259 173.669 42.668 173.33 42.7168C172.945 42.7691 172.594 42.8302 172.276 42.8999C171.962 42.9732 171.684 43.0796 171.443 43.2191C171.207 43.3586 171.018 43.5382 170.879 43.758L170.854 43.799C170.734 44.0071 170.675 44.255 170.675 44.5428L170.676 44.5988C170.685 44.8773 170.764 45.136 170.913 45.3747C171.073 45.6293 171.311 45.8334 171.63 45.9868C171.932 46.1307 172.3 46.2071 172.735 46.2161L172.823 46.217C173.432 46.217 173.958 46.0976 174.399 45.8586L174.442 45.8351C174.759 45.656 175.017 45.4198 175.216 45.1268L175.216 46.0601H175.979V42.5494ZM171.531 44.5428C171.531 44.3405 171.583 44.1713 171.688 44.0353C171.79 43.9078 171.917 43.8047 172.07 43.7263L172.101 43.7109C172.268 43.6272 172.441 43.5627 172.619 43.5173C172.883 43.4545 173.178 43.4005 173.504 43.3551C173.834 43.3098 174.168 43.2697 174.506 43.2348C174.723 43.2126 174.93 43.1902 175.127 43.168C175.127 43.2531 175.125 43.3538 175.123 43.4702C175.119 43.6865 175.094 43.8853 175.047 44.0667L175.036 44.1193C174.978 44.3809 174.863 44.618 174.692 44.8306C174.51 45.0538 174.269 45.2299 173.97 45.359L173.914 45.3824C173.627 45.4958 173.297 45.5526 172.922 45.5526L172.922 45.1238C173.274 45.1238 173.56 45.067 173.792 44.967C174.033 44.863 174.213 44.7275 174.346 44.5651C174.485 44.3927 174.573 44.202 174.614 43.9877L174.617 43.9752L174.62 43.9627C174.645 43.8671 174.662 43.7626 174.673 43.6486C174.633 43.6528 174.592 43.6571 174.552 43.6613L174.552 43.6612C174.219 43.6955 173.891 43.7349 173.567 43.7795L173.567 43.7796C173.253 43.8232 172.974 43.8746 172.727 43.9332C172.581 43.9704 172.44 44.0232 172.303 44.0921L172.296 44.0954C172.187 44.1478 172.104 44.2144 172.038 44.2951C172.002 44.3436 171.971 44.4173 171.971 44.5428C171.971 44.6258 171.992 44.7109 172.045 44.8033C172.087 44.8712 172.164 44.9468 172.307 45.0186C172.429 45.0784 172.625 45.1238 172.922 45.1238L172.922 45.5526C172.584 45.5526 172.313 45.502 172.107 45.4008C171.918 45.306 171.776 45.1882 171.683 45.0474L171.665 45.0189C171.581 44.875 171.536 44.7265 171.531 44.5735L171.531 44.5428ZM173.464 41.4086C173.095 41.4086 172.813 41.4828 172.597 41.6084C172.41 41.7194 172.261 41.9007 172.167 42.1954L172.066 42.5095C172.102 42.5002 172.137 42.4913 172.173 42.4829L172.176 42.4823L172.179 42.4816C172.47 42.4179 172.784 42.3618 173.122 42.3127L173.269 42.2921C173.661 42.2358 174.044 42.1881 174.418 42.1492C174.502 42.1397 174.583 42.1304 174.662 42.1211C174.619 41.9086 174.543 41.7659 174.455 41.6721C174.327 41.5367 174.044 41.4086 173.464 41.4086ZM176.419 43.1037L177.005 43.3764L176.419 43.4466V46.4889H174.776V46.1386C174.739 46.1617 174.701 46.1842 174.663 46.2059C174.133 46.5057 173.514 46.6458 172.823 46.6458C172.303 46.6458 171.835 46.5618 171.436 46.372L171.434 46.3711C171.053 46.1875 170.746 45.9321 170.537 45.5976C170.336 45.2754 170.234 44.9209 170.234 44.5428C170.234 44.1736 170.317 43.8308 170.503 43.5342L170.504 43.5332L170.504 43.5323C170.682 43.2524 170.922 43.0253 171.215 42.8523L171.217 42.8514L171.218 42.8507C171.428 42.7287 171.659 42.6305 171.906 42.5546L170.371 42.1494L170.489 41.734C170.66 41.1321 171.012 40.6514 171.539 40.3131C172.066 39.9748 172.723 39.8237 173.475 39.8237C174.098 39.8237 174.655 39.9292 175.13 40.1602C175.616 40.3911 175.979 40.7387 176.192 41.2031C176.292 41.4136 176.354 41.642 176.382 41.8842C176.407 42.1028 176.419 42.3246 176.419 42.5494V43.1037Z" fill="white"/>
<path d="M163.588 47.316V45.4011C163.945 45.4011 164.201 45.2982 164.356 45.0924C164.512 44.8831 164.638 44.55 164.735 44.0931C164.801 43.7966 164.855 43.4775 164.898 43.1356C164.941 42.7938 164.977 42.4032 165.009 41.9637C165.04 41.5207 165.069 41.0027 165.096 40.4098H169.253V45.4011H169.859V47.316H169.032V46.0604H164.409V47.316H163.588ZM165.038 45.4011H168.403V41.069H165.888C165.876 41.3341 165.859 41.6149 165.835 41.9113C165.816 42.2078 165.791 42.5043 165.76 42.8008C165.732 43.0973 165.699 43.3763 165.661 43.6379C165.626 43.896 165.583 44.1228 165.533 44.3181C165.474 44.5692 165.41 44.7837 165.34 44.9616C165.274 45.1395 165.173 45.286 165.038 45.4011Z" fill="white"/>
<path d="M169.859 45.4011H169.253V40.4098H165.096C165.069 41.0027 165.04 41.5207 165.009 41.9637C164.977 42.4032 164.941 42.7938 164.898 43.1356C164.855 43.4775 164.801 43.7966 164.735 44.0931L164.716 44.1774C164.622 44.5912 164.502 44.8962 164.356 45.0924C164.201 45.2982 163.945 45.4011 163.588 45.4011V47.316H164.409V46.0604H169.032V47.316H169.859V45.4011ZM168.403 41.069V45.4011H165.038C165.173 45.286 165.274 45.1395 165.34 44.9616C165.41 44.7837 165.474 44.5692 165.533 44.3181C165.583 44.1228 165.626 43.896 165.661 43.6379C165.699 43.3763 165.732 43.0973 165.76 42.8008C165.791 42.5043 165.816 42.2078 165.835 41.9113C165.859 41.6149 165.876 41.3341 165.888 41.069H168.403ZM166.306 41.4978C166.297 41.6409 166.287 41.7878 166.275 41.9385L166.275 41.9386C166.255 42.2405 166.229 42.5425 166.198 42.8443C166.17 43.1436 166.137 43.4269 166.097 43.6939C166.061 43.9597 166.017 44.1999 165.962 44.4125L165.939 44.5103C165.898 44.6772 165.853 44.8315 165.804 44.9723H167.963V41.4978H166.306ZM169.693 44.9723H170.299V47.7448H168.591V46.4892H164.849V47.7448H163.147V44.9723H163.588C163.858 44.9723 163.956 44.8985 164 44.8397C164.101 44.704 164.211 44.4425 164.304 44.0063L164.304 44.0043L164.304 44.0023C164.367 43.7203 164.419 43.4143 164.461 43.0839C164.502 42.7512 164.538 42.3682 164.569 41.9342C164.6 41.4956 164.629 40.9812 164.656 40.3907L164.675 39.981H169.693V44.9723Z" fill="white"/>
<path d="M156.258 46.0604L156.246 40.4098H157.108V42.5392H158.202C158.385 42.5392 158.563 42.5427 158.738 42.5497C158.913 42.5566 159.07 42.5706 159.209 42.5915C159.52 42.6473 159.796 42.7415 160.036 42.874C160.277 43.0066 160.467 43.1897 160.607 43.4234C160.747 43.6536 160.816 43.9449 160.816 44.2972C160.816 44.782 160.677 45.1639 160.397 45.443C160.118 45.722 159.767 45.9034 159.343 45.9871C159.184 46.0185 159.012 46.0394 158.825 46.0499C158.639 46.0569 158.456 46.0604 158.278 46.0604H156.258ZM157.108 45.4011H158.243C158.371 45.4011 158.517 45.3976 158.68 45.3907C158.843 45.3837 158.986 45.3645 159.111 45.3331C159.32 45.2808 159.508 45.1761 159.675 45.0192C159.846 44.8587 159.931 44.6181 159.931 44.2972C159.931 43.9797 159.85 43.7408 159.687 43.5804C159.524 43.4164 159.307 43.3083 159.035 43.256C158.911 43.2316 158.779 43.2159 158.639 43.2089C158.503 43.2019 158.371 43.1984 158.243 43.1984H157.108V45.4011ZM161.568 46.0604V40.4098H162.423V46.0604H161.568Z" fill="white"/>
<path d="M159.491 44.2971C159.491 44.0462 159.427 43.9342 159.374 43.8819L159.371 43.8786C159.281 43.7882 159.149 43.7152 158.949 43.6766L158.948 43.6763C158.847 43.6565 158.737 43.6431 158.616 43.6371H158.616C158.487 43.6305 158.363 43.6272 158.243 43.6272H157.548V44.9723H158.243L158.243 45.4011H157.108V43.1984H158.243C158.371 43.1984 158.503 43.2019 158.639 43.2089C158.779 43.2159 158.911 43.2316 159.035 43.256C159.307 43.3083 159.524 43.4164 159.687 43.5804C159.85 43.7408 159.931 43.9797 159.931 44.2972L159.93 44.3564C159.92 44.6478 159.835 44.8688 159.675 45.0192C159.508 45.1761 159.32 45.2808 159.111 45.3331C158.986 45.3645 158.843 45.3837 158.68 45.3907C158.517 45.3976 158.371 45.4011 158.243 45.4011L158.243 44.9723C158.363 44.9723 158.502 44.969 158.66 44.9623C158.8 44.9563 158.912 44.9402 159 44.918L159.001 44.9179L159.001 44.9177C159.131 44.8852 159.253 44.8199 159.369 44.7108L159.369 44.7106C159.425 44.6583 159.491 44.548 159.491 44.2971ZM161.568 40.4098V46.0604H162.423V40.4098H161.568ZM162.864 46.4892H161.127V45.0891C161.038 45.333 160.902 45.5531 160.713 45.7424C160.367 46.0879 159.934 46.3079 159.431 46.4073H159.431C159.249 46.4433 159.055 46.4665 158.851 46.4779L158.846 46.4782L158.842 46.4784C158.65 46.4855 158.462 46.4892 158.278 46.4892H155.818L155.805 39.981H157.548V42.1104H158.202L158.202 42.5392H157.108V40.4098H156.246L156.258 46.0604H158.278L158.413 46.0597C158.503 46.0588 158.594 46.057 158.686 46.0544L158.825 46.0499C159.012 46.0394 159.184 46.0185 159.343 45.9871C159.753 45.906 160.096 45.7333 160.371 45.4689L160.397 45.443C160.668 45.1727 160.808 44.8058 160.816 44.3423L160.816 44.2972C160.816 43.9449 160.747 43.6536 160.607 43.4234C160.476 43.2043 160.3 43.0297 160.081 42.8995L160.036 42.874C159.796 42.7415 159.52 42.6473 159.209 42.5915C159.07 42.5706 158.913 42.5566 158.738 42.5497C158.607 42.5444 158.474 42.5411 158.338 42.5398L158.202 42.5392L158.202 42.1104C158.39 42.1104 158.575 42.114 158.756 42.1212C158.92 42.1278 159.074 42.1402 159.216 42.1592L159.276 42.1677L159.283 42.1686L159.289 42.1698C159.641 42.2331 159.964 42.3418 160.253 42.5008C160.561 42.6705 160.807 42.9073 160.986 43.2052C161.042 43.2983 161.089 43.3966 161.127 43.4993V39.981H162.864V46.4892Z" fill="white"/>
<path d="M150.015 46.0604V40.4098H152.606C152.738 40.4098 152.897 40.4167 153.083 40.4307C153.274 40.4446 153.45 40.4708 153.613 40.5092C153.967 40.5929 154.25 40.7638 154.463 41.0219C154.681 41.28 154.789 41.5904 154.789 41.9532C154.789 42.1555 154.754 42.3369 154.685 42.4973C154.619 42.6543 154.524 42.7903 154.399 42.9054C154.341 42.9647 154.277 43.0171 154.207 43.0624C154.137 43.1043 154.069 43.1391 154.003 43.167C154.128 43.188 154.262 43.2368 154.405 43.3135C154.63 43.4321 154.801 43.5926 154.918 43.7949C155.034 43.9937 155.092 44.2361 155.092 44.5221C155.092 44.9093 154.989 45.225 154.784 45.4691C154.578 45.7133 154.302 45.8807 153.957 45.9714C153.802 46.0098 153.633 46.0342 153.45 46.0447C153.272 46.0551 153.103 46.0604 152.944 46.0604H150.015ZM150.877 45.4064H152.903C152.984 45.4064 153.087 45.4011 153.212 45.3907C153.336 45.3767 153.446 45.3593 153.543 45.3383C153.772 45.286 153.939 45.1814 154.044 45.0244C154.153 44.864 154.207 44.6896 154.207 44.5012C154.207 44.2536 154.126 44.0513 153.963 43.8943C153.803 43.7338 153.59 43.6362 153.322 43.6013C153.233 43.5839 153.14 43.5734 153.043 43.5699C152.946 43.5664 152.858 43.5647 152.781 43.5647H150.877V45.4064ZM150.877 42.9054H152.635C152.736 42.9054 152.849 42.9002 152.973 42.8897C153.101 42.8758 153.212 42.8531 153.305 42.8217C153.507 42.7589 153.654 42.6508 153.747 42.4973C153.844 42.3439 153.893 42.1764 153.893 41.9951C153.893 41.7962 153.84 41.6218 153.736 41.4719C153.635 41.3219 153.481 41.2172 153.276 41.1579C153.136 41.1126 152.984 41.0864 152.821 41.0795C152.662 41.0725 152.561 41.069 152.519 41.069H150.877V42.9054Z" fill="white"/>
<path d="M155.092 44.5221C155.092 44.2361 155.034 43.9937 154.918 43.7949C154.801 43.5926 154.63 43.4321 154.405 43.3135C154.262 43.2368 154.128 43.188 154.003 43.167C154.069 43.1391 154.137 43.1043 154.207 43.0624C154.277 43.0171 154.341 42.9647 154.399 42.9054C154.524 42.7903 154.619 42.6543 154.685 42.4973C154.75 42.3469 154.785 42.1781 154.789 41.9909L154.789 41.9532C154.789 41.5904 154.681 41.28 154.463 41.0219C154.25 40.7638 153.967 40.5929 153.613 40.5092C153.45 40.4708 153.274 40.4446 153.083 40.4307C152.944 40.4202 152.819 40.4137 152.71 40.4111L152.606 40.4098L152.606 39.981C152.753 39.981 152.923 39.9887 153.116 40.0032L153.117 40.0031C153.301 40.0166 153.477 40.0408 153.645 40.0764L153.717 40.0923L153.717 40.0925C154.158 40.1969 154.528 40.4162 154.806 40.753C155.092 41.094 155.23 41.5018 155.23 41.9532C155.23 42.202 155.187 42.4398 155.092 42.6597L155.092 42.6598C155.028 42.8115 154.943 42.9502 154.838 43.0746C155.027 43.2111 155.183 43.3803 155.3 43.5825C155.463 43.8603 155.533 44.18 155.533 44.5222C155.533 44.9854 155.408 45.4041 155.124 45.7411C154.854 46.0615 154.496 46.274 154.071 46.3854L154.068 46.3862L154.065 46.387C153.88 46.4329 153.683 46.4607 153.477 46.4726L153.477 46.4727C153.29 46.4836 153.113 46.4892 152.944 46.4892H149.575V39.981H152.606L152.606 40.4098H150.015V46.0604H152.944L153.065 46.0594C153.188 46.0574 153.316 46.0525 153.45 46.0447C153.61 46.0355 153.759 46.0157 153.898 45.9852L153.957 45.9714C154.302 45.8807 154.578 45.7133 154.784 45.4691C154.976 45.2402 155.079 44.9485 155.091 44.5939L155.092 44.5221ZM153.767 44.5012C153.767 44.3544 153.723 44.2664 153.653 44.1992L153.649 44.1957L153.646 44.1922C153.568 44.1132 153.452 44.0507 153.264 44.0263L153.25 44.0244L153.236 44.0217C153.171 44.0091 153.101 44.0011 153.026 43.9984C152.934 43.9951 152.852 43.9935 152.781 43.9935H151.317V44.9776H152.903L152.903 45.4064H150.877V43.5647H152.781C152.858 43.5647 152.946 43.5664 153.043 43.5699C153.14 43.5734 153.233 43.5839 153.322 43.6013C153.59 43.6362 153.803 43.7338 153.963 43.8943C154.126 44.0513 154.207 44.2536 154.207 44.5012L154.207 44.5364C154.2 44.7113 154.146 44.874 154.044 45.0244C153.939 45.1814 153.772 45.286 153.543 45.3383C153.446 45.3593 153.336 45.3767 153.212 45.3907C153.087 45.4011 152.984 45.4064 152.903 45.4064L152.903 44.9776C152.966 44.9776 153.053 44.9734 153.168 44.9639C153.276 44.9515 153.368 44.9368 153.445 44.9204C153.588 44.8873 153.645 44.835 153.675 44.7907L153.676 44.7883C153.739 44.6964 153.767 44.6038 153.767 44.5012ZM153.452 41.995C153.452 41.8736 153.422 41.7851 153.371 41.7131L153.367 41.7069C153.333 41.6555 153.274 41.6046 153.151 41.5691L153.143 41.567L153.136 41.5647C153.039 41.5332 152.929 41.5133 152.802 41.5079L152.802 41.5078C152.639 41.5007 152.549 41.4978 152.519 41.4978H151.317V42.4767H152.635L152.635 42.9054H150.877V41.069H152.519C152.561 41.069 152.662 41.0725 152.821 41.0795C152.984 41.0864 153.136 41.1126 153.276 41.1579C153.481 41.2172 153.635 41.3219 153.736 41.4719C153.84 41.6218 153.893 41.7962 153.893 41.9951C153.893 42.1764 153.844 42.3439 153.747 42.4973L153.729 42.5256C153.635 42.6642 153.494 42.7629 153.305 42.8217L153.269 42.8331C153.184 42.8587 153.085 42.8775 152.973 42.8897C152.849 42.9002 152.736 42.9054 152.635 42.9054L152.635 42.4767C152.72 42.4767 152.818 42.4722 152.93 42.4629C153.032 42.4514 153.107 42.4346 153.161 42.4165L153.166 42.4149L153.171 42.4133C153.287 42.3772 153.338 42.328 153.368 42.2792L153.37 42.2758L153.372 42.2726C153.426 42.1872 153.452 42.0976 153.452 41.995Z" fill="white"/>
<path d="M141.452 46.0604V40.4098H144.043C144.175 40.4098 144.334 40.4167 144.52 40.4307C144.711 40.4446 144.887 40.4708 145.05 40.5092C145.404 40.5929 145.687 40.7638 145.9 41.0219C146.118 41.28 146.226 41.5904 146.226 41.9532C146.226 42.1555 146.191 42.3369 146.122 42.4973C146.056 42.6543 145.961 42.7903 145.836 42.9054C145.778 42.9647 145.714 43.0171 145.644 43.0624C145.574 43.1043 145.506 43.1391 145.44 43.167C145.565 43.188 145.699 43.2368 145.842 43.3135C146.067 43.4321 146.238 43.5926 146.355 43.7949C146.471 43.9937 146.529 44.2361 146.529 44.5221C146.529 44.9093 146.426 45.225 146.221 45.4691C146.015 45.7133 145.739 45.8807 145.394 45.9714C145.239 46.0098 145.07 46.0342 144.887 46.0447C144.709 46.0551 144.54 46.0604 144.381 46.0604H141.452ZM142.314 45.4064H144.34C144.421 45.4064 144.524 45.4011 144.649 45.3907C144.773 45.3767 144.883 45.3593 144.98 45.3383C145.209 45.286 145.376 45.1814 145.481 45.0244C145.59 44.864 145.644 44.6896 145.644 44.5012C145.644 44.2536 145.563 44.0513 145.4 43.8943C145.241 43.7338 145.027 43.6362 144.759 43.6013C144.67 43.5839 144.577 43.5734 144.48 43.5699C144.383 43.5664 144.295 43.5647 144.218 43.5647H142.314V45.4064ZM142.314 42.9054H144.072C144.173 42.9054 144.286 42.9002 144.41 42.8897C144.538 42.8758 144.649 42.8531 144.742 42.8217C144.944 42.7589 145.091 42.6508 145.184 42.4973C145.281 42.3439 145.33 42.1764 145.33 41.9951C145.33 41.7962 145.277 41.6218 145.173 41.4719C145.072 41.3219 144.918 41.2172 144.713 41.1579C144.573 41.1126 144.421 41.0864 144.258 41.0795C144.099 41.0725 143.998 41.069 143.956 41.069H142.314V42.9054Z" fill="white"/>
<path d="M146.529 44.5221C146.529 44.2361 146.471 43.9937 146.355 43.7949C146.238 43.5926 146.067 43.4321 145.842 43.3135C145.699 43.2368 145.565 43.188 145.44 43.167C145.506 43.1391 145.574 43.1043 145.644 43.0624C145.714 43.0171 145.778 42.9647 145.836 42.9054C145.961 42.7903 146.056 42.6543 146.122 42.4973C146.187 42.3469 146.222 42.1781 146.226 41.9909L146.226 41.9532C146.226 41.5904 146.118 41.28 145.9 41.0219C145.687 40.7638 145.404 40.5929 145.05 40.5092C144.887 40.4708 144.711 40.4446 144.52 40.4307C144.381 40.4202 144.256 40.4137 144.147 40.4111L144.043 40.4098L144.043 39.981C144.19 39.981 144.36 39.9887 144.553 40.0032L144.554 40.0031C144.738 40.0166 144.914 40.0408 145.082 40.0764L145.154 40.0923L145.154 40.0925C145.595 40.1969 145.965 40.4162 146.243 40.753C146.529 41.094 146.667 41.5018 146.667 41.9532C146.667 42.202 146.624 42.4398 146.529 42.6597L146.529 42.6598C146.465 42.8115 146.38 42.9502 146.275 43.0746C146.464 43.2111 146.62 43.3803 146.737 43.5825C146.9 43.8603 146.97 44.18 146.97 44.5222C146.97 44.9854 146.845 45.4041 146.561 45.7411C146.291 46.0615 145.933 46.274 145.508 46.3854L145.505 46.3862L145.502 46.387C145.317 46.4329 145.12 46.4607 144.914 46.4726L144.914 46.4727C144.727 46.4836 144.55 46.4892 144.381 46.4892H141.012V39.981H144.043L144.043 40.4098H141.452V46.0604H144.381L144.502 46.0594C144.625 46.0574 144.753 46.0525 144.887 46.0447C145.047 46.0355 145.196 46.0157 145.335 45.9852L145.394 45.9714C145.739 45.8807 146.015 45.7133 146.221 45.4691C146.413 45.2402 146.516 44.9485 146.528 44.5939L146.529 44.5221ZM145.204 44.5012C145.204 44.3544 145.16 44.2664 145.09 44.1992L145.086 44.1957L145.083 44.1922C145.005 44.1132 144.889 44.0507 144.701 44.0263L144.687 44.0244L144.673 44.0217C144.608 44.0091 144.538 44.0011 144.463 43.9984C144.371 43.9951 144.289 43.9935 144.218 43.9935H142.754V44.9776H144.34L144.34 45.4064H142.314V43.5647H144.218C144.295 43.5647 144.383 43.5664 144.48 43.5699C144.577 43.5734 144.67 43.5839 144.759 43.6013C145.027 43.6362 145.241 43.7338 145.4 43.8943C145.563 44.0513 145.644 44.2536 145.644 44.5012L145.644 44.5364C145.637 44.7113 145.583 44.874 145.481 45.0244C145.376 45.1814 145.209 45.286 144.98 45.3383C144.883 45.3593 144.773 45.3767 144.649 45.3907C144.524 45.4011 144.421 45.4064 144.34 45.4064L144.34 44.9776C144.403 44.9776 144.49 44.9734 144.605 44.9639C144.713 44.9515 144.805 44.9368 144.882 44.9204C145.025 44.8873 145.082 44.835 145.112 44.7907L145.113 44.7883C145.176 44.6964 145.204 44.6038 145.204 44.5012ZM144.889 41.995C144.889 41.8736 144.859 41.7851 144.808 41.7131L144.804 41.7069C144.77 41.6555 144.711 41.6046 144.588 41.5691L144.58 41.567L144.573 41.5647C144.476 41.5332 144.366 41.5133 144.239 41.5079L144.239 41.5078C144.076 41.5007 143.986 41.4978 143.956 41.4978H142.754V42.4767H144.072L144.072 42.9054H142.314V41.069H143.956C143.998 41.069 144.099 41.0725 144.258 41.0795C144.421 41.0864 144.573 41.1126 144.713 41.1579C144.918 41.2172 145.072 41.3219 145.173 41.4719C145.277 41.6218 145.33 41.7962 145.33 41.9951C145.33 42.1764 145.281 42.3439 145.184 42.4973L145.166 42.5256C145.072 42.6642 144.931 42.7629 144.742 42.8217L144.706 42.8331C144.621 42.8587 144.522 42.8775 144.41 42.8897C144.286 42.9002 144.173 42.9054 144.072 42.9054L144.072 42.4767C144.157 42.4767 144.255 42.4722 144.367 42.4629C144.469 42.4514 144.544 42.4346 144.598 42.4165L144.603 42.4149L144.608 42.4133C144.724 42.3772 144.775 42.328 144.805 42.2792L144.807 42.2758L144.809 42.2726C144.863 42.1872 144.889 42.0976 144.889 41.995Z" fill="white"/>
<path d="M137.192 46.217C136.568 46.217 136.034 46.0897 135.591 45.8351C135.149 45.5805 134.809 45.2282 134.572 44.7782C134.336 44.3283 134.217 43.8121 134.217 43.2296C134.217 42.6366 134.338 42.1169 134.578 41.6704C134.819 41.2239 135.16 40.8769 135.603 40.6292C136.049 40.3781 136.579 40.2525 137.192 40.2525C137.821 40.2525 138.357 40.3798 138.799 40.6345C139.246 40.8856 139.585 41.2361 139.818 41.6861C140.055 42.1326 140.174 42.6471 140.174 43.2296C140.174 43.8225 140.055 44.344 139.818 44.7939C139.582 45.2404 139.24 45.5892 138.794 45.8403C138.347 46.0915 137.814 46.217 137.192 46.217ZM137.192 45.4793C137.891 45.4793 138.411 45.2718 138.753 44.8567C139.094 44.4382 139.265 43.8958 139.265 43.2296C139.265 42.5459 139.092 42.0018 138.747 41.5972C138.405 41.1925 137.887 40.9902 137.192 40.9902C136.723 40.9902 136.335 41.0862 136.028 41.278C135.725 41.4664 135.498 41.7297 135.347 42.068C135.199 42.4029 135.126 42.7901 135.126 43.2296C135.126 43.9097 135.3 44.4556 135.65 44.8672C135.999 45.2753 136.513 45.4793 137.192 45.4793Z" fill="white"/>
<path d="M140.174 43.2296C140.174 42.6471 140.055 42.1326 139.818 41.6861C139.585 41.2361 139.246 40.8856 138.799 40.6345C138.371 40.3878 137.855 40.2606 137.251 40.2529L137.192 40.2525C136.579 40.2525 136.049 40.3781 135.603 40.6292C135.16 40.8769 134.819 41.2239 134.578 41.6704L134.556 41.7124C134.33 42.1494 134.217 42.6551 134.217 43.2296C134.217 43.8121 134.336 44.3283 134.572 44.7782C134.809 45.2282 135.149 45.5805 135.591 45.8351C136.02 46.0818 136.534 46.209 137.134 46.2167L137.192 46.217C137.814 46.217 138.347 46.0915 138.794 45.8403C139.226 45.5971 139.56 45.2621 139.796 44.8355L139.818 44.7939C140.048 44.358 140.166 43.855 140.173 43.2849L140.174 43.2296ZM138.825 43.2295C138.825 42.6156 138.671 42.1784 138.408 41.8713L138.407 41.8695C138.172 41.5914 137.797 41.4191 137.192 41.4191C136.783 41.4191 136.484 41.5025 136.266 41.6387L136.265 41.6393C136.04 41.7792 135.869 41.9745 135.751 42.2393C135.632 42.5105 135.566 42.8375 135.566 43.2295C135.566 43.837 135.721 44.2771 135.988 44.5926L136.011 44.6192C136.257 44.8901 136.627 45.0505 137.192 45.0505L137.192 45.4793L137.129 45.4787C136.481 45.4664 135.988 45.2625 135.65 44.8672C135.311 44.4685 135.137 43.9437 135.126 43.2929L135.126 43.2296C135.126 42.7901 135.199 42.4029 135.347 42.068C135.489 41.7509 135.697 41.4996 135.972 41.3142L136.028 41.278C136.335 41.0862 136.723 40.9902 137.192 40.9902L137.257 40.9909C137.919 41.0031 138.416 41.2052 138.747 41.5972C139.092 42.0018 139.265 42.5459 139.265 43.2296C139.265 43.8958 139.094 44.4382 138.753 44.8567C138.411 45.2718 137.891 45.4793 137.192 45.4793L137.192 45.0505C137.797 45.0505 138.173 44.8752 138.408 44.5895C138.674 44.264 138.825 43.8231 138.825 43.2295ZM140.614 43.2295C140.614 43.8788 140.484 44.4693 140.21 44.9894L140.21 44.99L140.21 44.9907C139.934 45.51 139.533 45.9194 139.014 46.2116C138.488 46.5074 137.875 46.6458 137.192 46.6458C136.506 46.6458 135.891 46.5055 135.367 46.2042C134.852 45.9079 134.455 45.4951 134.18 44.9738C133.907 44.4547 133.777 43.8697 133.777 43.2295C133.777 42.5794 133.909 41.9891 134.188 41.4712C134.458 40.9699 134.843 40.5719 135.335 40.2849L135.384 40.2575C135.908 39.9624 136.517 39.8237 137.192 39.8237C137.881 39.8237 138.497 39.9631 139.02 40.2632C139.539 40.5555 139.938 40.9669 140.21 41.4893C140.483 42.0056 140.614 42.5895 140.614 43.2295Z" fill="white"/>
<path d="M130.484 46.0604V41.1213H128.254V40.4098H133.57V41.1213H131.34V46.0604H130.484Z" fill="white"/>
<path d="M133.57 41.1213V40.4098H128.254V41.1213H130.484V46.0604H131.34V41.1213H133.57ZM134.011 41.5501H131.781V46.4892H130.044V41.5501H127.814V39.981H134.011V41.5501Z" fill="white"/>
<path d="M122.996 46.0604L123.002 40.4098H123.864V43.1304L126.67 40.4098H127.811L124.865 43.2351L128.195 46.0604H126.949L123.864 43.3397V46.0604H122.996Z" fill="white"/>
<path d="M123.002 40.4098L122.996 46.0604H123.864V43.3397L126.949 46.0604H128.195L124.865 43.2351L127.811 40.4098H126.67L123.864 43.1304V40.4098H123.002ZM124.304 42.0983L126.488 39.981H128.886L125.513 43.2158L129.371 46.4892H126.78L124.304 44.3064V46.4892H122.555L122.562 39.981H124.304V42.0983Z" fill="white"/>
<path d="M116.116 46.0604V40.4098H116.972V42.8636H120.517V40.4098H121.373V46.0604H120.517V43.6013H116.972V46.0604H116.116Z" fill="white"/>
<path d="M116.972 40.4098H116.116V46.0604H116.972V43.6013H120.517V46.0604H121.373V40.4098H120.517V42.8636H116.972V40.4098ZM121.814 46.4892H120.077V44.0301H117.412V46.4892H115.675V39.981H117.412V42.4348H120.077V39.981H121.814V46.4892Z" fill="white"/>
<path d="M110.878 48.5717L112.094 45.6052L112.112 46.4841L109.358 40.4098H110.266L112.525 45.4901H112.153L114.237 40.4098H115.11L111.733 48.5717H110.878Z" fill="white"/>
<path d="M110.555 39.981L112.315 43.9383L113.939 39.981H115.763L112.031 49.0005H110.227L111.436 46.0547L108.682 39.981H110.555ZM109.358 40.4098L111.913 46.0464L110.878 48.5717H111.733L115.11 40.4098H114.237L112.331 45.0541L110.266 40.4098H109.358Z" fill="white"/>
<path d="M103.345 46.0604V40.4098H108.347V46.0604H107.491V41.1475H104.201V46.0604H103.345Z" fill="white"/>
<path d="M108.347 40.4098H103.345V46.0604H104.201V41.1475H107.491V46.0604H108.347V40.4098ZM108.787 46.4892H107.05V41.5763H104.641V46.4892H102.905V39.981H108.787V46.4892Z" fill="white"/>
<path d="M94.8059 46.0604L94.7943 40.4098H95.656V42.5392H97.129C97.3115 42.5392 97.49 42.5427 97.6647 42.5497C97.8432 42.5566 98.0004 42.5706 98.1363 42.5915C98.4468 42.6438 98.7224 42.7363 98.9631 42.8688C99.2076 43.0014 99.3978 43.1845 99.5337 43.4182C99.6734 43.6519 99.7433 43.9449 99.7433 44.2972C99.7433 44.782 99.6035 45.1639 99.3241 45.443C99.0485 45.722 98.6991 45.9034 98.276 45.9871C98.1169 46.0185 97.9442 46.0394 97.7578 46.0499C97.5715 46.0569 97.3872 46.0604 97.2047 46.0604H94.8059ZM95.656 45.4011H97.1698C97.3018 45.4011 97.4493 45.3976 97.6123 45.3907C97.7753 45.3837 97.9189 45.3645 98.0431 45.3331C98.2489 45.2808 98.4352 45.1761 98.6021 45.0192C98.7729 44.8587 98.8583 44.6181 98.8583 44.2972C98.8583 43.9797 98.7768 43.7408 98.6137 43.5804C98.4507 43.4164 98.2333 43.3083 97.9616 43.256C97.8413 43.2316 97.7113 43.2159 97.5715 43.2089C97.4318 43.2019 97.2979 43.1984 97.1698 43.1984H95.656V45.4011Z" fill="white"/>
<path d="M98.4179 44.2971C98.4179 44.0462 98.3538 43.9342 98.3007 43.8819L98.2989 43.8803L98.2973 43.8786C98.2074 43.7882 98.0763 43.7152 97.8762 43.6766L97.874 43.6762L97.8718 43.6758C97.7764 43.6564 97.6691 43.6431 97.549 43.6371C97.4161 43.6305 97.2897 43.6272 97.1698 43.6272H96.0964V44.9723H97.1698L97.1698 45.4011H95.656V43.1984H97.1698C97.2979 43.1984 97.4318 43.2019 97.5715 43.2089C97.7113 43.2159 97.8413 43.2316 97.9616 43.256C98.2333 43.3083 98.4507 43.4164 98.6137 43.5804C98.7768 43.7408 98.8583 43.9797 98.8583 44.2972L98.8573 44.3564C98.8473 44.6478 98.7622 44.8688 98.6021 45.0192C98.4352 45.1761 98.2489 45.2808 98.0431 45.3331C97.9189 45.3645 97.7753 45.3837 97.6123 45.3907L97.4929 45.3952C97.3765 45.3992 97.2688 45.4011 97.1698 45.4011L97.1698 44.9723C97.2941 44.9723 97.4349 44.969 97.5929 44.9623C97.7327 44.9563 97.8444 44.9402 97.9319 44.9181C98.0578 44.8861 98.1786 44.8213 98.2961 44.7108L98.2963 44.7106C98.352 44.6583 98.4179 44.548 98.4179 44.2971ZM95.656 40.4098H94.7943L94.8059 46.0604H97.2047L97.342 46.0597C97.4336 46.0588 97.5258 46.057 97.6185 46.0544L97.7578 46.0499C97.9209 46.0407 98.0735 46.0236 98.2157 45.9984L98.276 45.9871C98.6991 45.9034 99.0485 45.722 99.3241 45.443C99.6035 45.1639 99.7433 44.782 99.7433 44.2972C99.7433 43.9669 99.6819 43.6887 99.5591 43.4627L99.5337 43.4182C99.3978 43.1845 99.2076 43.0014 98.9631 42.8688C98.7224 42.7363 98.4468 42.6438 98.1363 42.5915C98.0004 42.5706 97.8432 42.5566 97.6647 42.5497C97.5337 42.5444 97.4005 42.5411 97.2651 42.5398L97.129 42.5392L97.1291 42.1104C97.3172 42.1104 97.5018 42.114 97.6827 42.1212C97.8735 42.1287 98.0483 42.1438 98.2051 42.168L98.2083 42.1685L98.2114 42.169C98.5648 42.2285 98.8896 42.3357 99.1799 42.4956C99.4913 42.6649 99.7384 42.9021 99.9141 43.2024C100.103 43.5186 100.184 43.8914 100.184 44.2971C100.184 44.864 100.018 45.3628 99.6414 45.7401L99.6415 45.7402C99.2985 46.0874 98.8665 46.3079 98.3637 46.4073H98.3635C98.1811 46.4433 97.9874 46.4665 97.7832 46.4779L97.779 46.4782L97.7748 46.4784C97.583 46.4855 97.3929 46.4892 97.2048 46.4892H94.3664L94.353 39.981H96.0964V42.1104H97.1291L97.129 42.5392H95.656V40.4098Z" fill="white"/>
<path d="M90.6035 46.0604V41.1213H88.3735V40.4098H93.6893V41.1213H91.4593V46.0604H90.6035Z" fill="white"/>
<path d="M93.6893 41.1213V40.4098H88.3735V41.1213H90.6035V46.0604H91.4593V41.1213H93.6893ZM94.1297 41.5501H91.8998V46.4892H90.163V41.5501H87.9331V39.981H94.1297V41.5501Z" fill="white"/>
<path d="M84.826 46.217C84.2127 46.217 83.681 46.095 83.2307 45.8508C82.7843 45.6066 82.4369 45.2631 82.1885 44.8201C81.9401 44.3771 81.8159 43.8574 81.8159 43.2609C81.8159 42.6436 81.9382 42.1099 82.1827 41.6599C82.4272 41.21 82.7707 40.8629 83.2132 40.6188C83.6596 40.3746 84.1856 40.2525 84.7911 40.2525C85.4121 40.2525 85.942 40.3816 86.3806 40.6397C86.8192 40.8943 87.1511 41.2606 87.3762 41.7384C87.6013 42.2163 87.7042 42.7866 87.6848 43.4493H86.8114V43.1772C86.7959 42.4447 86.6193 41.8919 86.2816 41.5187C85.9478 41.1455 85.4587 40.9588 84.8144 40.9588C84.139 40.9588 83.6208 41.1559 83.2598 41.5501C82.9027 41.9442 82.7242 42.5058 82.7242 43.2348C82.7242 43.9463 82.9027 44.4992 83.2598 44.8933C83.6208 45.284 84.1312 45.4793 84.7911 45.4793C85.2414 45.4793 85.6334 45.3869 85.9672 45.202C86.3049 45.0137 86.5708 44.7434 86.7649 44.3911L87.5625 44.6684C87.3141 45.1602 86.9473 45.5421 86.4621 45.8142C85.9808 46.0828 85.4354 46.217 84.826 46.217ZM82.4214 43.4493V42.8058H87.2248V43.4493H82.4214Z" fill="white"/>
<path d="M84.7911 39.8237C85.4744 39.8237 86.086 39.966 86.606 40.2714C87.1258 40.5731 87.5165 41.0077 87.7765 41.5597C88.0362 42.1109 88.1458 42.7497 88.125 43.4615L88.1128 43.8781H86.5991L88.1756 44.4262L87.9577 44.8576C87.6709 45.4254 87.2433 45.871 86.6819 46.1858L86.681 46.1862C86.1267 46.4956 85.5045 46.6458 84.8261 46.6458C84.152 46.6458 83.5436 46.5113 83.0164 46.2254L83.0157 46.225L83.015 46.2247C82.4957 45.9406 82.0894 45.5383 81.8019 45.0256C81.5123 44.5091 81.3755 43.9161 81.3755 43.261C81.3755 42.5884 81.5089 41.983 81.7934 41.4594C82.0761 40.9393 82.4784 40.5314 82.9961 40.2457L82.9969 40.2453L82.9976 40.2449C83.5209 39.9586 84.1239 39.8237 84.7911 39.8237ZM84.8743 40.9594C85.4891 40.9707 85.9582 41.1571 86.2816 41.5187C86.5596 41.8259 86.7283 42.255 86.788 42.8058H82.7471C82.8055 42.2816 82.9763 41.8631 83.2598 41.5501C83.6208 41.1559 84.139 40.9588 84.8144 40.9588L84.8743 40.9594ZM84.8144 41.3877C84.2326 41.3877 83.8477 41.5535 83.5901 41.8337L83.5658 41.8613C83.4486 41.9983 83.3529 42.1682 83.2843 42.377H86.258C86.1845 42.1316 86.0789 41.9434 85.9511 41.8021L85.9504 41.8012L85.9495 41.8003C85.7207 41.5445 85.368 41.3877 84.8144 41.3877ZM81.8162 43.3166C81.8237 43.8898 81.9479 44.391 82.1885 44.8201C82.4369 45.2631 82.7843 45.6066 83.2307 45.8508C83.6669 46.0873 84.1796 46.2093 84.7688 46.2167L84.826 46.217C85.4164 46.217 85.9467 46.091 86.4168 45.839L86.4621 45.8142C86.9473 45.5421 87.3141 45.1602 87.5625 44.6684L86.7649 44.3911C86.5708 44.7434 86.3049 45.0137 85.9672 45.202L85.9039 45.2356C85.5841 45.3981 85.2132 45.4793 84.7911 45.4793L84.7911 45.0505C85.178 45.0505 85.4922 44.9716 85.7489 44.8296C86.0107 44.6834 86.2196 44.4737 86.3768 44.1884L86.5477 43.8781H83.2301C83.3005 44.1884 83.4251 44.4274 83.5898 44.6093C83.849 44.8882 84.2279 45.0505 84.7911 45.0505L84.7911 45.4793L84.7296 45.4788C84.0995 45.467 83.6095 45.2718 83.2598 44.8933C82.9395 44.5397 82.7629 44.0584 82.73 43.4493L87.6848 43.4493L87.6862 43.3874C87.6972 42.7715 87.6008 42.2369 87.3969 41.7835L87.3762 41.7384C87.1511 41.2606 86.8192 40.8943 86.3806 40.6397C85.9557 40.3896 85.4452 40.2608 84.849 40.2529L84.7911 40.2525C84.1856 40.2525 83.6596 40.3746 83.2132 40.6188L83.1721 40.642C82.7494 40.8847 82.4196 41.224 82.1827 41.6599C81.9382 42.1099 81.8159 42.6436 81.8159 43.2609L81.8162 43.3166Z" fill="white"/>
<path d="M78.3264 46.217C77.6937 46.217 77.158 46.0897 76.7194 45.8351C76.2808 45.5805 75.947 45.2299 75.718 44.7835C75.4928 44.3335 75.3764 43.8173 75.3686 43.2348C75.3764 42.6418 75.4967 42.1221 75.7296 41.6756C75.9625 41.2257 76.2982 40.8769 76.7369 40.6292C77.1755 40.3781 77.7073 40.2525 78.3322 40.2525C78.9688 40.2525 79.5219 40.392 79.9915 40.6711C80.4651 40.9501 80.7892 41.3321 80.9639 41.8169L80.1255 42.0576C79.978 41.7192 79.7431 41.4576 79.421 41.2728C79.1027 41.0844 78.7378 40.9902 78.3264 40.9902C77.8645 40.9902 77.4821 41.0862 77.1794 41.278C76.8766 41.4664 76.6515 41.7297 76.504 42.068C76.3565 42.4064 76.2808 42.7953 76.2769 43.2348C76.2847 43.9115 76.4593 44.4556 76.8009 44.8672C77.1425 45.2753 77.651 45.4793 78.3264 45.4793C78.7533 45.4793 79.1163 45.3921 79.4151 45.2177C79.7179 45.0398 79.9469 44.7817 80.1022 44.4434L80.9639 44.6736C80.731 45.1759 80.3894 45.5596 79.9391 45.8246C79.4889 46.0862 78.9513 46.217 78.3264 46.217Z" fill="white"/>
<path d="M78.3322 39.8237C79.0368 39.8237 79.6719 39.9789 80.221 40.305C80.7766 40.6328 81.1693 41.0919 81.3794 41.675L81.5328 42.1006L79.8735 42.577L79.7201 42.2251C79.6091 41.9705 79.4375 41.78 79.1974 41.6422L79.1948 41.6407L79.1922 41.6392C78.95 41.4958 78.6659 41.4191 78.3264 41.4191C77.9262 41.4191 77.6333 41.5019 77.4196 41.6374L77.418 41.6384L77.4165 41.6393C77.1925 41.7787 77.024 41.9727 76.9094 42.2356C76.7889 42.512 76.7212 42.8421 76.7172 43.2342C76.7249 43.8387 76.8799 44.2794 77.1423 44.5963L77.1649 44.6225C77.403 44.8906 77.7654 45.0505 78.3264 45.0505L78.3264 45.4793L78.2635 45.4787C77.6401 45.4668 77.1635 45.2755 76.8334 44.9049L76.8009 44.8672C76.4593 44.4556 76.2847 43.9115 76.2769 43.2348C76.2805 42.8228 76.3473 42.4552 76.4772 42.1321L76.504 42.068C76.6422 41.7509 76.8488 41.4996 77.1235 41.3142L77.1794 41.278C77.4821 41.0862 77.8645 40.9902 78.3264 40.9902L78.403 40.9914C78.7832 41.0024 79.1226 41.0962 79.421 41.2728C79.723 41.4461 79.9482 41.6868 80.0968 41.995L80.1255 42.0576L80.9639 41.8169C80.7947 41.3472 80.4852 40.9741 80.0355 40.6976L79.9915 40.6711C79.5219 40.392 78.9688 40.2525 78.3322 40.2525C77.7073 40.2525 77.1755 40.3781 76.7369 40.6292C76.2982 40.8769 75.9625 41.2257 75.7296 41.6756L75.7081 41.7177C75.4893 42.1547 75.3761 42.6603 75.3686 43.2348C75.3764 43.8173 75.4928 44.3335 75.718 44.7835C75.947 45.2299 76.2808 45.5805 76.7194 45.8351C77.1443 46.0818 77.6603 46.209 78.2673 46.2167L78.3264 46.217C78.9317 46.217 79.4552 46.0943 79.8967 45.8488L79.9391 45.8246C80.3894 45.5596 80.731 45.1759 80.9639 44.6736L80.1022 44.4434C79.9469 44.7817 79.7179 45.0398 79.4151 45.2177L79.3583 45.2494C79.0706 45.4027 78.7266 45.4793 78.3264 45.4793L78.3264 45.0505C78.6909 45.0505 78.9711 44.9765 79.1875 44.8506C79.4073 44.7214 79.5785 44.5333 79.7001 44.2685L79.8543 43.9325L81.5772 44.3928L81.3653 44.85C81.0986 45.4251 80.6995 45.8781 80.167 46.1916L80.1659 46.1922L80.1648 46.1928C79.6342 46.5011 79.0154 46.6458 78.3264 46.6458C77.6332 46.6458 77.0152 46.5061 76.4939 46.2034C75.9826 45.9066 75.5905 45.4946 75.324 44.975L75.323 44.9732L75.3221 44.9713C75.0642 44.4559 74.9367 43.8757 74.9282 43.2404V43.2293C74.9367 42.5827 75.0684 41.9963 75.337 41.4815C75.599 40.9757 75.9776 40.5742 76.4681 40.2859L76.516 40.2583C77.0356 39.9614 77.6476 39.8237 78.3322 39.8237Z" fill="white"/>
</svg>
