<svg width="190" height="50" viewBox="0 0 190 50" fill="none" xmlns="http://www.w3.org/2000/svg">
<path d="M62.5396 1.74106L63.5759 1.94624L64.1977 5.22919L65.6485 14.6677L66.6848 21.8491V23.0802L66.063 23.4906L56.3219 24.9269L46.788 26.3632H45.3372L44.9226 25.9528L44.5081 22.875V21.4387L39.3266 22.0543C39.3266 22.0543 38.5435 26.6131 37.2541 29.2357C37.1749 29.3968 37.0468 29.6461 37.0468 29.6461L38.9121 30.2617C38.9121 30.2617 40.4936 31.0381 41.3992 31.6979C42.1842 32.2699 42.59 32.643 43.2646 33.3394C44.1833 34.288 44.6007 34.9134 45.3372 36.0068C46.1615 37.2307 46.4519 38.0202 47.2025 39.2898C47.6793 40.0962 48.446 41.3416 48.446 41.3416C48.446 41.3416 49.7977 40.7088 50.7259 40.5209C51.9947 40.264 52.8161 40.1077 54.042 40.5209C54.556 40.6941 54.8438 40.824 55.2856 41.1364C55.7513 41.4658 56.0769 41.6503 56.3219 42.1623C56.4986 42.5316 56.5291 43.1883 56.5291 43.1883L54.6638 44.4194L51.7622 46.0608L49.4823 47.4971L47.2025 48.7282C47.2025 48.7282 46.2099 49.3228 45.9589 49.3438C45.708 49.3647 5.3362 49.3438 5.3362 49.3438C5.3362 49.3438 5.13617 49.3258 5.12895 49.1386C5.12172 48.9514 5.12174 48.0515 5.12895 47.9075C5.13615 47.7635 5.3362 47.7023 5.3362 47.7023H45.3372C45.3372 47.7023 44.4875 46.3039 43.8863 45.4453C43.1301 44.3652 42.6885 43.7664 41.8138 42.7779C40.9086 41.7551 40.4098 41.1519 39.3266 40.3157C38.3524 39.5635 37.7518 39.1916 36.6323 38.6742C35.7738 38.2775 35.2608 38.1198 34.3524 37.8535C33.7125 37.6659 33.3583 37.5111 32.6944 37.4431C32.2113 37.3936 32.3271 37.2739 31.4508 37.4431C30.5745 37.6123 30.3018 38.9622 28.7564 40.7261C27.2111 42.4899 27.8928 41.7449 27.3056 42.3675C26.6807 43.0302 26.383 43.4688 25.6476 44.009C24.7755 44.6496 24.2278 45.042 23.1605 45.2401C22.4445 45.373 22.0127 45.3643 21.2951 45.2401C20.4364 45.0915 19.9987 44.8123 19.2226 44.4194C17.9827 43.7917 17.4243 43.2085 16.3209 42.3675C15.4094 41.6728 14.8678 41.3127 14.0411 40.5209C13.8765 40.3633 13.6266 40.1105 13.6266 40.1105C13.6266 40.1105 13.1141 40.2112 12.7975 40.3157C11.9021 40.6112 11.6056 41.2104 10.7249 41.5468C10.4861 41.638 10.3506 41.687 10.1032 41.752C9.08613 42.0191 8.34747 42.2226 7.40879 41.752C7.04776 41.5709 6.72653 41.5098 6.57976 41.1364C6.43008 40.7557 6.78702 40.1105 6.78702 40.1105L9.48138 36.6224L11.1395 34.3653C11.1395 34.3653 11.8485 32.9291 12.383 32.7239C12.7678 32.5761 13.4193 32.9291 13.4193 32.9291L18.3935 36.0068L21.2951 37.8535L22.746 34.9809L24.404 30.0565L26.0621 23.4906L27.3056 18.5662C27.3056 18.5662 27.7542 17.1955 28.3419 16.5143C28.7525 16.0385 29.0541 15.8275 29.5855 15.4884C30.2555 15.0608 30.6804 14.8702 31.4508 14.6677C32.7025 14.3386 34.767 14.6677 34.767 14.6677L43.4718 15.4884C43.4718 15.4884 43.0778 13.1146 42.85 11.5899C42.5871 9.82988 42.3038 8.85344 42.2283 7.07585C42.1942 6.27526 42.2283 5.02401 42.2283 5.02401L43.0573 4.61364L51.5549 3.38253L62.5396 1.74106Z" fill="#212D3F"/>
<path d="M52.7986 16.1037C53.4204 15.9238 53.8027 15.6855 54.0421 16.1037C54.257 16.4792 53.858 16.7634 53.6276 17.1297C53.2332 17.7568 52.8218 17.9892 52.1768 18.3608C51.5791 18.7051 51.555 18.6992 50.5187 18.9763C49.4825 19.2535 46.9847 19.4976 44.7155 19.7971C41.322 20.2449 36.9378 20.6934 36.0106 20.823C35.0834 20.9526 34.9111 21.003 34.7671 21.2333C34.623 21.4637 34.6091 21.8977 34.9743 22.2593C35.3395 22.6208 36.8519 21.4729 37.2542 22.2593C37.5128 22.7647 37.0469 23.6956 37.0469 23.6956C37.0469 23.6956 35.5743 28.8827 35.3888 29.4407C35.2034 29.9987 35.2034 30.1607 35.3888 30.4666C35.5743 30.7726 36.3994 30.9668 37.0469 31.2874C38.1801 31.8483 38.909 32.0067 39.9485 32.7237C40.842 33.3399 41.262 33.7974 42.0211 34.5703C42.621 35.181 42.9502 35.5344 43.4719 36.2118C44.3304 37.3264 44.6395 38.0699 45.3373 39.2896C46.1937 40.7866 47.0281 43.0116 47.4099 43.1881C47.7916 43.3645 48.1371 43.4149 48.4461 43.3932C48.7552 43.3716 49.8021 42.6848 50.726 42.3673C51.2827 42.1761 51.5908 42.0182 52.1768 41.957C52.9057 41.8807 53.4498 41.7348 54.0421 42.1621C54.2271 42.2956 54.4312 42.3133 54.4567 42.5725C54.4821 42.8317 53.1961 43.3272 52.3841 43.8036C50.8554 44.7005 50.0212 45.2462 48.4461 46.0606C47.8045 46.3924 47.2099 46.9713 46.7881 46.8814C46.3663 46.7914 45.9407 45.4815 45.3373 44.6243C44.5133 43.4539 44.0153 42.8176 43.0574 41.7518C42.1444 40.7358 41.6407 40.1418 40.5703 39.2896C39.5206 38.4538 38.8684 38.0495 37.6687 37.4429C36.7316 36.9691 36.1716 36.7699 35.1816 36.417C34.7 36.2453 34.4342 36.1313 33.938 36.0066C32.6804 35.6905 31.823 35.3155 30.6219 35.8014C29.3459 36.3175 29.2072 37.4065 28.342 38.4688C27.5088 39.4919 27.1612 40.1627 26.2694 41.1362C25.7312 41.7238 25.462 42.0997 24.8186 42.5725C24.2947 42.9576 23.9479 43.0974 23.3678 43.3932C23.2069 43.4753 23.1224 43.5346 22.9533 43.5984C22.3482 43.8266 21.9308 43.7212 21.2952 43.5984C20.4071 43.4269 19.9981 43.0343 19.2226 42.5725C17.9878 41.837 17.4404 41.214 16.321 40.3155C15.339 39.5272 14.303 38.412 13.8339 38.2636C13.3648 38.1153 13.2921 38.1053 12.7976 38.2636C12.3031 38.422 11.6143 39.2738 10.725 39.6999C10.3327 39.8879 9.68874 40.1103 9.68874 40.1103C9.68874 40.1103 9.19422 40.2687 9.06697 40.1103C8.93971 39.9519 9.20511 39.6172 9.48148 39.2896C9.75785 38.962 12.1758 35.5962 12.1758 35.5962C12.1758 35.5962 12.5649 34.9087 12.7976 34.7755C13.0303 34.6423 13.3139 34.7791 13.6267 34.9807C13.9394 35.1822 16.4057 36.7314 18.1864 37.8533C19.0767 38.4142 19.5854 38.714 20.4662 39.2896C20.7098 39.4487 20.8158 39.5956 21.088 39.6999C21.5409 39.8735 21.997 39.8979 22.3315 39.6999C22.6661 39.5019 23.7031 37.1208 24.4041 35.391C25.0713 33.7449 25.3338 32.7792 25.8549 31.0822C26.7057 28.3116 27.0186 26.7119 27.7203 23.9007C28.2195 21.9008 28.7566 19.4335 28.9638 18.7711C29.1711 18.1088 29.4313 17.634 30.0001 17.1297C30.5394 16.6515 30.9662 16.5197 31.6582 16.3089C32.8959 15.9319 34.9743 16.3089 34.9743 16.3089C34.9743 16.3089 40.1387 17.0483 43.4719 17.1297C44.6047 17.1573 44.6282 17.1297 46.3736 17.1297C48.1189 17.1297 52.1768 16.2837 52.7986 16.1037Z" fill="#04FCF8"/>
<path d="M61.0887 3.5871H62.125C62.125 3.5871 62.6611 6.20773 62.954 7.89597C63.3281 10.0515 63.4604 11.2723 63.7831 13.4359C64.1894 16.1601 64.7428 17.6595 64.8194 20.4122C64.8372 21.053 64.8194 22.0537 64.8194 22.0537L60.4669 22.6692L46.5806 24.7211L46.3733 24.5159L45.9588 21.2329C45.9588 21.2329 47.2185 20.9642 48.0314 20.8226C49.1588 20.6262 50.0276 20.603 50.933 20.4122C51.7857 20.2325 52.2596 20.038 53.0056 19.5915C53.8397 19.0922 54.4819 18.4833 54.8709 17.95C55.2948 17.369 55.5727 16.8233 55.7 16.3085C55.8154 15.8415 55.9172 15.5074 55.7 15.0774C55.5464 14.7733 55.3947 14.5937 55.0782 14.4619C54.4819 14.2135 53.5729 14.4619 52.7984 14.667C51.6152 14.9805 49.6895 15.0774 49.6895 15.0774C49.6895 15.0774 50.3211 14.4521 50.7258 14.0515C51.1305 13.6508 51.6639 13.3136 51.7621 13.0256C51.8602 12.7376 51.8788 12.0871 51.5548 11.9996C51.1566 11.8921 50.875 11.999 50.5185 12.2048C49.6895 12.6836 48.3794 14.0459 47.8241 14.4619C47.2689 14.8778 47.0474 15.3152 46.3733 15.4878C45.9032 15.6082 45.1298 15.4878 45.1298 15.4878C45.1298 15.4878 44.3439 11.6309 44.0935 9.12707C43.9816 8.00787 43.8862 6.25449 43.8862 6.25449L50.3113 5.22857L61.0887 3.5871Z" fill="#04FCF8"/>
<path d="M29.5856 0.71476C30.2266 0.624499 30.6026 0.624499 31.2436 0.71476C32.1816 0.84682 32.716 1.04503 33.5235 1.5355C34.1595 1.92182 34.5904 2.13312 34.9743 2.7666C35.0674 2.92024 35.1815 3.17697 35.1815 3.17697C35.1815 3.17697 36.687 2.84296 37.6687 2.7666C38.5563 2.69756 39.4831 2.33465 39.9485 2.7666C40.4139 3.19855 40.0892 2.87957 40.1558 2.97179C40.391 3.29781 40.363 3.77091 40.1558 3.99771C39.9485 4.22451 39.0321 4.4165 38.2904 4.61326C37.4931 4.82478 36.2178 5.02363 36.2178 5.02363C36.2178 5.02363 36.3622 5.5199 36.4251 5.84437C36.6385 6.9461 36.6392 7.61534 36.4251 8.71694C36.2461 9.63794 36.108 10.1848 35.5961 10.974C35.1013 11.7368 34.6909 12.0994 33.938 12.6154C33.3428 13.0234 32.2799 13.4362 32.2799 13.4362C32.2799 13.4362 30.2106 13.7827 28.9638 13.4362C28.0925 13.1941 27.6134 12.9501 26.8912 12.4103C26.1134 11.8288 25.7374 11.3893 25.2331 10.5636C24.7821 9.82509 24.5959 9.35363 24.4041 8.51176C24.1369 7.33928 24.1096 6.60005 24.4041 5.434C24.6675 4.39105 24.9643 3.80732 25.6476 2.97179C26.189 2.30977 26.569 1.97548 27.3057 1.5355C28.1169 1.05104 28.6476 0.84682 29.5856 0.71476Z" fill="#212D3F"/>
<path d="M34.1452 5.63959H34.5598L34.767 6.04996C34.767 6.04996 35.0226 7.58449 34.767 8.51217C34.5765 9.20361 34.3708 9.57915 33.938 10.1536C33.4236 10.8364 33.0684 11.249 32.2799 11.5899C32.0454 11.6913 31.9058 11.7312 31.6581 11.7951C30.7183 12.0378 30.0961 12.0882 29.171 11.7951C28.3372 11.531 27.8659 11.2301 27.3057 10.564C27.0037 10.205 26.6715 10.0052 26.6839 9.53809C26.6907 9.28478 26.8912 8.92253 26.8912 8.92253L32.6944 6.25514L34.1452 5.63959Z" fill="#04FCF8"/>
<path d="M10.3105 13.0256C13.467 12.9911 17.7586 12.9838 18.3936 13.0256C18.6662 13.0436 18.7756 13.3687 18.848 13.5837C18.9389 13.8537 18.7571 14.3035 18.7571 14.3035L18.4844 14.5735C18.0298 14.75 16.628 14.8723 15.492 14.8723C9.93954 14.8723 2.93997 15.1135 1.19112 14.8723C0.746269 14.811 0.614963 14.0124 0.849226 13.5837C0.958156 13.3844 1.17129 13.2595 1.39838 13.2308C4.30365 12.8638 6.82938 13.0638 10.3105 13.0256Z" fill="#212D3F"/>
<path d="M5.12864 19.1813C8.21207 19.1813 19.015 19.1813 19.015 19.1813C19.015 19.1813 19.3307 19.3872 19.4295 19.5917C19.6076 19.9603 19.5298 20.3452 19.2222 20.6176C19.0874 20.7371 18.8077 20.8228 18.8077 20.8228C18.8077 20.8228 12.7452 21.0052 8.8593 21.028C7.32148 21.037 5.2123 21.143 4.92138 21.028C4.75779 20.9633 4.60564 20.8221 4.50687 20.6176C4.3288 20.249 4.35052 19.8656 4.57597 19.5234C4.70103 19.3336 4.89971 19.1813 5.12864 19.1813Z" fill="#212D3F"/>
<path d="M29.1711 2.56103C30.111 2.31832 30.7338 2.26619 31.6583 2.56103C32.2794 2.75912 32.7563 3.05418 33.1091 3.38177C33.4618 3.70936 33.5236 3.99732 33.5236 3.99732L29.5857 6.04917L26.684 7.48546C26.684 7.48546 26.4586 7.68705 26.0623 7.48546C25.6659 7.28386 25.9218 6.46975 26.0623 5.84398C26.2193 5.14435 26.4585 4.777 26.8913 4.20251C27.4057 3.51974 27.7609 3.10714 28.5494 2.76622C28.7839 2.6648 28.9235 2.625 29.1711 2.56103Z" fill="#04FCF8"/>
<path d="M23.7824 16.3081C24.0297 16.1933 24.7569 16.373 24.8478 16.463C24.9288 16.5431 25.0009 16.5954 25.026 16.7184C25.0747 16.9576 25.0288 18.1152 24.8187 18.9755C24.5751 19.973 23.2115 26.7221 22.7461 27.388C22.6159 27.5744 22.5381 27.7006 22.3316 27.7984C21.9593 27.9747 21.2953 27.5932 21.2953 27.5932C21.2953 27.5932 21.1015 27.5006 21.0881 27.388C21.0299 26.9025 21.2198 26.2725 21.2953 25.7465C21.7156 22.821 22.7018 19.1631 22.9534 18.3599C23.1808 17.6338 23.4843 16.7332 23.5752 16.5133C23.6185 16.4084 23.6788 16.3562 23.7824 16.3081Z" fill="#212D3F"/>
<path d="M14.8698 6.87105C17.1356 6.82368 19.3932 6.65507 20.6731 6.87105C21.0116 6.92817 21.1998 7.15993 21.2948 7.4866C21.4155 7.90124 21.2847 8.35159 20.8803 8.51252C20.1204 8.81493 17.9762 8.67172 16.1134 8.71771C13.605 8.77964 10.524 8.89036 9.68834 8.71771C9.57629 8.69456 9.43006 8.56247 9.39386 8.45497C9.30296 8.18499 9.1897 7.66604 9.48108 7.28142C9.54976 7.19076 9.60447 7.15336 9.68834 7.07623C10.0302 6.7619 12.8452 6.91338 14.8698 6.87105Z" fill="#212D3F"/>
<path d="M148.864 35.5459V2.10123H170.586V6.67665H153.798V35.5459H148.864Z" fill="#212D3F"/>
<path d="M170.586 6.67654V2.10118L148.864 2.10123V35.5459L153.799 35.5459V6.67654H170.586ZM172.061 8.13066H155.274V37H147.389V0.647064H172.061V8.13066Z" fill="white"/>
<path d="M142.963 35.5459H137.958V10.6714L121.218 35.5459H116.213V2.10123H121.218V26.9525L137.958 2.10123H142.963V35.5459Z" fill="#212D3F"/>
<path d="M137.958 2.10118L121.218 26.9524V2.10118L116.213 2.10123V35.5459L121.218 35.5459L137.958 10.6714V35.5459L142.963 35.5459V2.10123L137.958 2.10118ZM144.439 37H136.483V15.4938L122.01 37H114.737V0.647064H122.693V22.1336L137.167 0.647064H144.439V37Z" fill="white"/>
<path d="M76.7619 35.5459V2.10123H81.2243L93.549 27.2544L105.803 2.10123H110.313V35.5227H105.638V12.6456L94.6587 35.5459H92.4157L81.4131 12.6456V35.5459H76.7619Z" fill="#212D3F"/>
<path d="M110.313 2.10123L105.803 2.10118L93.549 27.2543L81.2244 2.10118L76.7619 2.10123V35.5459L81.4131 35.5459V12.6455L92.4158 35.5459H94.6586L105.638 12.6456L105.638 35.5226H110.313L110.313 2.10123ZM111.788 36.9767H104.162V19.126L95.5933 37H91.482L82.8883 19.1132V37H75.2866V0.647064H82.1501L93.545 23.9033L104.875 0.647064H111.788V36.9767Z" fill="white"/>
<path d="M188.825 40.4095V46.0601H187.992V41.6599L184.545 46.0601H183.823V40.4095H184.656V44.773L188.108 40.4095H188.825Z" fill="#212D3F"/>
<path d="M188.108 40.4095L184.656 44.773V40.4095H183.823V46.0601H184.545L187.992 41.6599V46.0601H188.825V40.4095H188.108ZM189.265 46.4889H187.552V42.9291L184.763 46.4889H183.383V39.9807H185.096V43.5138L187.892 39.9807H189.265V46.4889Z" fill="#212D3F"/>
<path d="M181.343 46.0601V43.9568C181.134 44.051 180.876 44.1329 180.569 44.2027C180.262 44.2725 179.932 44.3073 179.579 44.3073C178.943 44.3073 178.426 44.18 178.03 43.9254C177.635 43.6708 177.376 43.3028 177.256 42.8214C177.217 42.6784 177.19 42.5267 177.175 42.3663C177.163 42.2058 177.155 42.0611 177.151 41.932C177.147 41.8029 177.145 41.7105 177.145 41.6547V40.4095H178.007V41.6547C178.007 41.7698 178.011 41.9006 178.019 42.0471C178.027 42.1936 178.044 42.3366 178.071 42.4761C178.149 42.8563 178.324 43.1441 178.595 43.3394C178.871 43.5347 179.257 43.6324 179.754 43.6324C180.064 43.6324 180.357 43.5975 180.633 43.5278C180.913 43.4545 181.149 43.3569 181.343 43.2348V40.4095H182.199V46.0601H181.343Z" fill="#212D3F"/>
<path d="M178.007 41.6547V40.4095H177.145V41.6547L177.147 41.7659C177.148 41.8121 177.149 41.8675 177.151 41.932C177.155 42.0611 177.163 42.2058 177.175 42.3663C177.19 42.5267 177.217 42.6784 177.256 42.8214C177.376 43.3028 177.635 43.6708 178.03 43.9254C178.426 44.18 178.943 44.3073 179.579 44.3073C179.91 44.3073 180.221 44.2767 180.511 44.2154L180.569 44.2027C180.876 44.1329 181.134 44.051 181.343 43.9568V46.0601H182.199V40.4095H181.343V43.2348C181.149 43.3569 180.913 43.4545 180.633 43.5278L180.581 43.5404C180.321 43.6017 180.045 43.6324 179.754 43.6324L179.754 43.2036C180.029 43.2036 180.284 43.1728 180.519 43.1135C180.666 43.0751 180.793 43.0305 180.903 42.9812V39.9807H182.64V46.4889H180.903V44.5625C180.827 44.5827 180.749 44.602 180.669 44.6203C180.326 44.6984 179.962 44.7361 179.579 44.7361C178.885 44.7361 178.276 44.5975 177.788 44.2832C177.292 43.9644 176.973 43.501 176.828 42.9229L176.828 42.9228C176.784 42.7576 176.753 42.5853 176.736 42.4065L176.736 42.4015L176.735 42.3965C176.723 42.2315 176.715 42.0807 176.711 41.9445C176.707 41.8153 176.705 41.7174 176.705 41.6547V39.9807H178.448V41.6547C178.448 41.7608 178.451 41.884 178.459 42.025C178.465 42.1521 178.48 42.2752 178.504 42.3944C178.564 42.6876 178.688 42.8726 178.855 42.9932C179.028 43.1155 179.31 43.2036 179.754 43.2036L179.754 43.6324C179.257 43.6324 178.871 43.5347 178.595 43.3394C178.324 43.1441 178.149 42.8563 178.071 42.4761C178.047 42.3541 178.031 42.2293 178.022 42.1019L178.019 42.0471C178.013 41.9372 178.009 41.8362 178.008 41.744L178.007 41.6547Z" fill="#212D3F"/>
<path d="M172.823 46.2168C172.35 46.2168 171.952 46.1401 171.63 45.9866C171.311 45.8332 171.073 45.6291 170.913 45.3745C170.754 45.1198 170.675 44.8426 170.675 44.5426C170.675 44.2356 170.743 43.974 170.879 43.7578C171.018 43.538 171.207 43.3584 171.443 43.2189C171.684 43.0794 171.962 42.973 172.276 42.8997C172.594 42.83 172.945 42.7689 173.33 42.7166C173.718 42.6608 174.096 42.6137 174.465 42.5753C174.838 42.5335 175.164 42.4934 175.443 42.455L175.14 42.6224C175.152 42.0643 175.032 41.651 174.78 41.3824C174.527 41.1139 174.089 40.9796 173.464 40.9796C173.033 40.9796 172.668 41.0668 172.369 41.2412C172.074 41.4156 171.866 41.6911 171.746 42.0678L170.913 41.8481C171.057 41.3423 171.346 40.9499 171.781 40.6709C172.216 40.3918 172.781 40.2523 173.475 40.2523C174.05 40.2523 174.537 40.35 174.937 40.5453C175.34 40.7371 175.626 41.0162 175.793 41.3824C175.87 41.5464 175.921 41.7295 175.944 41.9318C175.967 42.1341 175.979 42.3399 175.979 42.5492V46.0599H175.216V44.642L175.437 44.7257C175.224 45.2105 174.892 45.5803 174.442 45.8349C173.992 46.0895 173.452 46.2168 172.823 46.2168ZM172.922 45.5524C173.322 45.5524 173.671 45.4878 173.97 45.3588C174.269 45.2297 174.51 45.0536 174.692 44.8303C174.875 44.6036 174.993 44.349 175.047 44.0665C175.094 43.8851 175.119 43.6863 175.123 43.47C175.127 43.2503 175.129 43.0863 175.129 42.9782L175.455 43.1299C175.164 43.1648 174.847 43.1997 174.506 43.2346C174.168 43.2695 173.834 43.3096 173.504 43.3549C173.178 43.4003 172.883 43.4543 172.619 43.5171C172.441 43.5624 172.268 43.627 172.101 43.7107C171.934 43.7909 171.797 43.899 171.688 44.0351C171.583 44.1711 171.531 44.3403 171.531 44.5426C171.531 44.7065 171.575 44.8652 171.665 45.0187C171.758 45.1722 171.905 45.2995 172.107 45.4006C172.313 45.5018 172.584 45.5524 172.922 45.5524Z" fill="#212D3F"/>
<path d="M175.979 42.5492C175.979 42.3661 175.97 42.1856 175.952 42.0079L175.944 41.9318C175.921 41.7295 175.87 41.5464 175.793 41.3824C175.626 41.0162 175.34 40.7371 174.937 40.5453C174.562 40.3622 174.11 40.2649 173.582 40.2535L173.475 40.2523C172.781 40.2523 172.216 40.3918 171.781 40.6709L171.741 40.6974C171.328 40.9745 171.053 41.3581 170.913 41.8481L171.746 42.0678C171.866 41.6911 172.074 41.4156 172.369 41.2412C172.668 41.0668 173.033 40.9796 173.464 40.9796L173.522 40.9799C174.116 40.988 174.535 41.1223 174.78 41.3824C175.012 41.6301 175.133 42.0008 175.141 42.4947C174.936 42.5207 174.711 42.5478 174.465 42.5753L174.326 42.5902C174.002 42.6256 173.669 42.6678 173.33 42.7166C172.945 42.7689 172.594 42.83 172.276 42.8997C171.962 42.973 171.684 43.0794 171.443 43.2189C171.207 43.3584 171.018 43.538 170.879 43.7578L170.854 43.7988C170.734 44.0069 170.675 44.2548 170.675 44.5426L170.676 44.5985C170.685 44.8771 170.764 45.1358 170.913 45.3745C171.073 45.6291 171.311 45.8332 171.63 45.9866C171.932 46.1305 172.3 46.2069 172.735 46.2159L172.823 46.2168C173.432 46.2168 173.958 46.0973 174.399 45.8584L174.442 45.8349C174.759 45.6558 175.017 45.4196 175.216 45.1266L175.216 46.0599H175.979V42.5492ZM171.531 44.5426C171.531 44.3403 171.583 44.1711 171.688 44.0351C171.79 43.9075 171.917 43.8045 172.07 43.726L172.101 43.7107C172.268 43.627 172.441 43.5624 172.619 43.5171C172.883 43.4543 173.178 43.4003 173.504 43.3549C173.834 43.3096 174.168 43.2695 174.506 43.2346C174.723 43.2124 174.93 43.19 175.127 43.1678C175.127 43.2529 175.125 43.3536 175.123 43.47C175.119 43.6863 175.094 43.8851 175.047 44.0665L175.036 44.1191C174.978 44.3807 174.863 44.6178 174.692 44.8303C174.51 45.0536 174.269 45.2297 173.97 45.3588L173.914 45.3822C173.627 45.4956 173.297 45.5524 172.922 45.5524L172.922 45.1236C173.274 45.1236 173.56 45.0668 173.792 44.9668C174.033 44.8628 174.213 44.7273 174.346 44.5649C174.485 44.3925 174.573 44.2018 174.614 43.9875L174.617 43.9749L174.62 43.9625C174.645 43.8669 174.662 43.7624 174.673 43.6484C174.633 43.6526 174.592 43.6569 174.552 43.6611L174.552 43.661C174.219 43.6953 173.891 43.7347 173.567 43.7793L173.567 43.7794C173.253 43.823 172.974 43.8744 172.727 43.933C172.581 43.9702 172.44 44.023 172.303 44.0919L172.296 44.0952C172.187 44.1475 172.104 44.2142 172.038 44.2949C172.002 44.3434 171.971 44.4171 171.971 44.5426C171.971 44.6256 171.992 44.7107 172.045 44.8031C172.087 44.871 172.164 44.9465 172.307 45.0184C172.429 45.0782 172.625 45.1236 172.922 45.1236L172.922 45.5524C172.584 45.5524 172.313 45.5018 172.107 45.4006C171.918 45.3058 171.776 45.188 171.683 45.0472L171.665 45.0187C171.581 44.8748 171.536 44.7263 171.531 44.5733L171.531 44.5426ZM173.464 41.4084C173.095 41.4084 172.813 41.4826 172.597 41.6082C172.41 41.7192 172.261 41.9004 172.167 42.1952L172.066 42.5093C172.102 42.5 172.137 42.4911 172.173 42.4827L172.176 42.482L172.179 42.4814C172.47 42.4177 172.784 42.3615 173.122 42.3125L173.269 42.2919C173.661 42.2356 174.044 42.1879 174.418 42.149C174.502 42.1395 174.583 42.1302 174.662 42.1209C174.619 41.9084 174.543 41.7657 174.455 41.6719C174.327 41.5365 174.044 41.4084 173.464 41.4084ZM176.419 43.1035L177.005 43.3762L176.419 43.4464V46.4887H174.776V46.1384C174.739 46.1615 174.701 46.184 174.663 46.2057C174.133 46.5055 173.514 46.6456 172.823 46.6456C172.303 46.6456 171.835 46.5616 171.436 46.3718L171.434 46.3709C171.053 46.1873 170.746 45.9319 170.537 45.5974C170.336 45.2752 170.234 44.9207 170.234 44.5426C170.234 44.1734 170.317 43.8306 170.503 43.534L170.504 43.533L170.504 43.5321C170.682 43.2522 170.922 43.0251 171.215 42.852L171.217 42.8512L171.218 42.8505C171.428 42.7284 171.659 42.6303 171.906 42.5544L170.371 42.1492L170.489 41.7338C170.66 41.1319 171.012 40.6512 171.539 40.3129C172.066 39.9745 172.723 39.8235 173.475 39.8235C174.098 39.8235 174.655 39.9289 175.13 40.16C175.616 40.3908 175.979 40.7385 176.192 41.2029C176.292 41.4134 176.354 41.6418 176.382 41.884C176.407 42.1026 176.419 42.3244 176.419 42.5492V43.1035Z" fill="#212D3F"/>
<path d="M163.588 47.3158V45.4008C163.945 45.4008 164.201 45.2979 164.356 45.0922C164.512 44.8829 164.638 44.5498 164.735 44.0928C164.801 43.7964 164.855 43.4772 164.898 43.1354C164.941 42.7935 164.977 42.4029 165.009 41.9634C165.04 41.5204 165.069 41.0024 165.096 40.4095H169.253V45.4008H169.859V47.3158H169.032V46.0601H164.409V47.3158H163.588ZM165.038 45.4008H168.403V41.0687H165.888C165.876 41.3338 165.859 41.6146 165.835 41.9111C165.816 42.2076 165.791 42.504 165.76 42.8005C165.732 43.097 165.699 43.376 165.661 43.6376C165.626 43.8958 165.583 44.1225 165.533 44.3178C165.474 44.5689 165.41 44.7835 165.34 44.9614C165.274 45.1392 165.173 45.2857 165.038 45.4008Z" fill="#212D3F"/>
<path d="M169.859 45.4008H169.253V40.4095H165.096C165.069 41.0024 165.04 41.5204 165.009 41.9634C164.977 42.4029 164.941 42.7935 164.898 43.1354C164.855 43.4772 164.801 43.7964 164.735 44.0928L164.716 44.1771C164.622 44.5909 164.502 44.896 164.356 45.0922C164.201 45.2979 163.945 45.4008 163.588 45.4008V47.3158H164.409V46.0601H169.032V47.3158H169.859V45.4008ZM168.403 41.0687V45.4008H165.038C165.173 45.2857 165.274 45.1392 165.34 44.9614C165.41 44.7835 165.474 44.5689 165.533 44.3178C165.583 44.1225 165.626 43.8958 165.661 43.6376C165.699 43.376 165.732 43.097 165.76 42.8005C165.791 42.504 165.816 42.2076 165.835 41.9111C165.859 41.6146 165.876 41.3338 165.888 41.0687H168.403ZM166.306 41.4975C166.297 41.6406 166.287 41.7875 166.275 41.9382L166.275 41.9383C166.255 42.2402 166.229 42.5422 166.198 42.8441C166.17 43.1433 166.137 43.4266 166.097 43.6936C166.061 43.9594 166.017 44.1996 165.962 44.4123L165.939 44.5101C165.898 44.6769 165.853 44.8312 165.804 44.972H167.963V41.4975H166.306ZM169.693 44.972H170.299V47.7445H168.591V46.4889H164.849V47.7445H163.147V44.972H163.588C163.858 44.972 163.956 44.8982 164 44.8395C164.101 44.7037 164.211 44.4422 164.304 44.006L164.304 44.004L164.304 44.0021C164.367 43.7201 164.419 43.414 164.461 43.0836C164.502 42.7509 164.538 42.3679 164.569 41.934C164.6 41.4953 164.629 40.9809 164.656 40.3904L164.675 39.9807H169.693V44.972Z" fill="#212D3F"/>
<path d="M156.258 46.0601L156.246 40.4095H157.108V42.5389H158.202C158.385 42.5389 158.563 42.5424 158.738 42.5494C158.913 42.5564 159.07 42.5703 159.209 42.5912C159.52 42.647 159.796 42.7412 160.036 42.8738C160.277 43.0063 160.467 43.1894 160.607 43.4231C160.747 43.6533 160.816 43.9446 160.816 44.2969C160.816 44.7817 160.677 45.1637 160.397 45.4427C160.118 45.7217 159.767 45.9031 159.343 45.9868C159.184 46.0182 159.012 46.0392 158.825 46.0496C158.639 46.0566 158.456 46.0601 158.278 46.0601H156.258ZM157.108 45.4008H158.243C158.371 45.4008 158.517 45.3974 158.68 45.3904C158.843 45.3834 158.986 45.3642 159.111 45.3328C159.32 45.2805 159.508 45.1759 159.675 45.0189C159.846 44.8585 159.931 44.6178 159.931 44.2969C159.931 43.9795 159.85 43.7405 159.687 43.5801C159.524 43.4162 159.307 43.308 159.035 43.2557C158.911 43.2313 158.779 43.2156 158.639 43.2086C158.503 43.2016 158.371 43.1982 158.243 43.1982H157.108V45.4008ZM161.568 46.0601V40.4095H162.423V46.0601H161.568Z" fill="#212D3F"/>
<path d="M159.491 44.2969C159.491 44.046 159.427 43.9339 159.374 43.8816L159.371 43.8784C159.281 43.7879 159.149 43.7149 158.949 43.6764L158.948 43.676C158.847 43.6562 158.737 43.6428 158.616 43.6368H158.616C158.487 43.6302 158.363 43.6269 158.243 43.6269H157.548V44.972H158.243L158.243 45.4008H157.108V43.1982H158.243C158.371 43.1982 158.503 43.2016 158.639 43.2086C158.779 43.2156 158.911 43.2313 159.035 43.2557C159.307 43.308 159.524 43.4162 159.687 43.5801C159.85 43.7405 159.931 43.9795 159.931 44.2969L159.93 44.3561C159.92 44.6476 159.835 44.8685 159.675 45.0189C159.508 45.1759 159.32 45.2805 159.111 45.3328C158.986 45.3642 158.843 45.3834 158.68 45.3904C158.517 45.3974 158.371 45.4008 158.243 45.4008L158.243 44.972C158.363 44.972 158.502 44.9688 158.66 44.962C158.8 44.956 158.912 44.9399 159 44.9178L159.001 44.9176L159.001 44.9174C159.131 44.8849 159.253 44.8197 159.369 44.7105L159.369 44.7103C159.425 44.658 159.491 44.5477 159.491 44.2969ZM161.568 40.4095V46.0601H162.423V40.4095H161.568ZM162.864 46.4889H161.127V45.0889C161.038 45.3328 160.902 45.5528 160.713 45.7421C160.367 46.0876 159.934 46.3076 159.431 46.4071H159.431C159.249 46.443 159.055 46.4662 158.851 46.4777L158.846 46.4779L158.842 46.4781C158.65 46.4853 158.462 46.4889 158.278 46.4889H155.818L155.805 39.9807H157.548V42.1101H158.202L158.202 42.5389H157.108V40.4095H156.246L156.258 46.0601H158.278L158.413 46.0594C158.503 46.0586 158.594 46.0568 158.686 46.0542L158.825 46.0496C159.012 46.0392 159.184 46.0182 159.343 45.9868C159.753 45.9057 160.096 45.733 160.371 45.4686L160.397 45.4427C160.668 45.1724 160.808 44.8055 160.816 44.3421L160.816 44.2969C160.816 43.9446 160.747 43.6533 160.607 43.4231C160.476 43.2041 160.3 43.0294 160.081 42.8992L160.036 42.8738C159.796 42.7412 159.52 42.647 159.209 42.5912C159.07 42.5703 158.913 42.5564 158.738 42.5494C158.607 42.5442 158.474 42.5409 158.338 42.5395L158.202 42.5389L158.202 42.1101C158.39 42.1101 158.575 42.1137 158.756 42.121C158.92 42.1275 159.074 42.1399 159.216 42.1589L159.276 42.1675L159.283 42.1684L159.289 42.1695C159.641 42.2328 159.964 42.3415 160.253 42.5005C160.561 42.6702 160.807 42.907 160.986 43.2049C161.042 43.298 161.089 43.3963 161.127 43.4991V39.9807H162.864V46.4889Z" fill="#212D3F"/>
<path d="M150.015 46.0601V40.4095H152.606C152.738 40.4095 152.897 40.4165 153.083 40.4304C153.274 40.4444 153.45 40.4705 153.613 40.5089C153.967 40.5926 154.25 40.7635 154.463 41.0216C154.681 41.2797 154.789 41.5902 154.789 41.9529C154.789 42.1552 154.754 42.3366 154.685 42.4971C154.619 42.654 154.524 42.7901 154.399 42.9052C154.341 42.9645 154.277 43.0168 154.207 43.0621C154.137 43.104 154.069 43.1389 154.003 43.1668C154.128 43.1877 154.262 43.2365 154.405 43.3133C154.63 43.4319 154.801 43.5923 154.918 43.7946C155.034 43.9934 155.092 44.2358 155.092 44.5219C155.092 44.909 154.989 45.2247 154.784 45.4689C154.578 45.713 154.302 45.8804 153.957 45.9711C153.802 46.0095 153.633 46.0339 153.45 46.0444C153.272 46.0548 153.103 46.0601 152.944 46.0601H150.015ZM150.877 45.4061H152.903C152.984 45.4061 153.087 45.4008 153.212 45.3904C153.336 45.3764 153.446 45.359 153.543 45.3381C153.772 45.2857 153.939 45.1811 154.044 45.0241C154.153 44.8637 154.207 44.6893 154.207 44.5009C154.207 44.2533 154.126 44.051 153.963 43.894C153.803 43.7336 153.59 43.6359 153.322 43.601C153.233 43.5836 153.14 43.5731 153.043 43.5696C152.946 43.5661 152.858 43.5644 152.781 43.5644H150.877V45.4061ZM150.877 42.9052H152.635C152.736 42.9052 152.849 42.8999 152.973 42.8895C153.101 42.8755 153.212 42.8528 153.305 42.8214C153.507 42.7587 153.654 42.6505 153.747 42.4971C153.844 42.3436 153.893 42.1762 153.893 41.9948C153.893 41.796 153.84 41.6216 153.736 41.4716C153.635 41.3216 153.481 41.217 153.276 41.1577C153.136 41.1123 152.984 41.0862 152.821 41.0792C152.662 41.0722 152.561 41.0687 152.519 41.0687H150.877V42.9052Z" fill="#212D3F"/>
<path d="M155.092 44.5219C155.092 44.2358 155.034 43.9934 154.918 43.7946C154.801 43.5923 154.63 43.4319 154.405 43.3133C154.262 43.2365 154.128 43.1877 154.003 43.1668C154.069 43.1389 154.137 43.104 154.207 43.0621C154.277 43.0168 154.341 42.9645 154.399 42.9052C154.524 42.7901 154.619 42.654 154.685 42.4971C154.75 42.3467 154.785 42.1778 154.789 41.9907L154.789 41.9529C154.789 41.5902 154.681 41.2797 154.463 41.0216C154.25 40.7635 153.967 40.5926 153.613 40.5089C153.45 40.4705 153.274 40.4444 153.083 40.4304C152.944 40.4199 152.819 40.4134 152.71 40.4108L152.606 40.4095L152.606 39.9807C152.753 39.9807 152.923 39.9884 153.116 40.0029L153.117 40.0028C153.301 40.0163 153.477 40.0405 153.645 40.0762L153.717 40.0921L153.717 40.0922C154.158 40.1966 154.528 40.4159 154.806 40.7527C155.092 41.0937 155.23 41.5016 155.23 41.953C155.23 42.2017 155.187 42.4396 155.092 42.6594L155.092 42.6595C155.028 42.8112 154.943 42.95 154.838 43.0744C155.027 43.2108 155.183 43.38 155.3 43.5822C155.463 43.86 155.533 44.1797 155.533 44.5219C155.533 44.9851 155.408 45.4038 155.124 45.7408C154.854 46.0612 154.496 46.2737 154.071 46.3851L154.068 46.386L154.065 46.3867C153.88 46.4326 153.683 46.4605 153.477 46.4723L153.477 46.4724C153.29 46.4833 153.113 46.4889 152.944 46.4889H149.575V39.9807H152.606L152.606 40.4095H150.015V46.0601H152.944L153.065 46.0591C153.188 46.0571 153.316 46.0522 153.45 46.0444C153.61 46.0352 153.759 46.0154 153.898 45.9849L153.957 45.9711C154.302 45.8804 154.578 45.713 154.784 45.4689C154.976 45.24 155.079 44.9482 155.091 44.5937L155.092 44.5219ZM153.767 44.5009C153.767 44.3541 153.723 44.2662 153.653 44.1989L153.649 44.1954L153.646 44.1919C153.568 44.113 153.452 44.0505 153.264 44.026L153.25 44.0242L153.236 44.0214C153.171 44.0088 153.101 44.0008 153.026 43.9981C152.934 43.9948 152.852 43.9932 152.781 43.9932H151.317V44.9773H152.903L152.903 45.4061H150.877V43.5644H152.781C152.858 43.5644 152.946 43.5661 153.043 43.5696C153.14 43.5731 153.233 43.5836 153.322 43.601C153.59 43.6359 153.803 43.7336 153.963 43.894C154.126 44.051 154.207 44.2533 154.207 44.5009L154.207 44.5361C154.2 44.7111 154.146 44.8737 154.044 45.0241C153.939 45.1811 153.772 45.2857 153.543 45.3381C153.446 45.359 153.336 45.3764 153.212 45.3904C153.087 45.4008 152.984 45.4061 152.903 45.4061L152.903 44.9773C152.966 44.9773 153.053 44.9731 153.168 44.9636C153.276 44.9512 153.368 44.9365 153.445 44.9201C153.588 44.8871 153.645 44.8347 153.675 44.7904L153.676 44.788C153.739 44.6961 153.767 44.6036 153.767 44.5009ZM153.452 41.9948C153.452 41.8734 153.422 41.7848 153.371 41.7128L153.367 41.7066C153.333 41.6552 153.274 41.6043 153.151 41.5688L153.143 41.5667L153.136 41.5645C153.039 41.533 152.929 41.513 152.802 41.5076L152.802 41.5075C152.639 41.5004 152.549 41.4975 152.519 41.4975H151.317V42.4764H152.635L152.635 42.9052H150.877V41.0687H152.519C152.561 41.0687 152.662 41.0722 152.821 41.0792C152.984 41.0862 153.136 41.1123 153.276 41.1577C153.481 41.217 153.635 41.3216 153.736 41.4716C153.84 41.6216 153.893 41.796 153.893 41.9948C153.893 42.1762 153.844 42.3436 153.747 42.4971L153.729 42.5253C153.635 42.6639 153.494 42.7626 153.305 42.8214L153.269 42.8328C153.184 42.8584 153.085 42.8773 152.973 42.8895C152.849 42.8999 152.736 42.9052 152.635 42.9052L152.635 42.4764C152.72 42.4764 152.818 42.4719 152.93 42.4626C153.032 42.4511 153.107 42.4343 153.161 42.4163L153.166 42.4146L153.171 42.413C153.287 42.3769 153.338 42.3277 153.368 42.2789L153.37 42.2756L153.372 42.2723C153.426 42.1869 153.452 42.0973 153.452 41.9948Z" fill="#212D3F"/>
<path d="M141.452 46.0601V40.4095H144.043C144.175 40.4095 144.334 40.4165 144.52 40.4304C144.711 40.4444 144.887 40.4705 145.05 40.5089C145.404 40.5926 145.687 40.7635 145.9 41.0216C146.118 41.2797 146.226 41.5902 146.226 41.9529C146.226 42.1552 146.191 42.3366 146.122 42.4971C146.056 42.654 145.961 42.7901 145.836 42.9052C145.778 42.9645 145.714 43.0168 145.644 43.0621C145.574 43.104 145.506 43.1389 145.44 43.1668C145.565 43.1877 145.699 43.2365 145.842 43.3133C146.067 43.4319 146.238 43.5923 146.355 43.7946C146.471 43.9934 146.529 44.2358 146.529 44.5219C146.529 44.909 146.426 45.2247 146.221 45.4689C146.015 45.713 145.739 45.8804 145.394 45.9711C145.239 46.0095 145.07 46.0339 144.887 46.0444C144.709 46.0548 144.54 46.0601 144.381 46.0601H141.452ZM142.314 45.4061H144.34C144.421 45.4061 144.524 45.4008 144.649 45.3904C144.773 45.3764 144.883 45.359 144.98 45.3381C145.209 45.2857 145.376 45.1811 145.481 45.0241C145.59 44.8637 145.644 44.6893 145.644 44.5009C145.644 44.2533 145.563 44.051 145.4 43.894C145.241 43.7336 145.027 43.6359 144.759 43.601C144.67 43.5836 144.577 43.5731 144.48 43.5696C144.383 43.5661 144.295 43.5644 144.218 43.5644H142.314V45.4061ZM142.314 42.9052H144.072C144.173 42.9052 144.286 42.8999 144.41 42.8895C144.538 42.8755 144.649 42.8528 144.742 42.8214C144.944 42.7587 145.091 42.6505 145.184 42.4971C145.281 42.3436 145.33 42.1762 145.33 41.9948C145.33 41.796 145.277 41.6216 145.173 41.4716C145.072 41.3216 144.918 41.217 144.713 41.1577C144.573 41.1123 144.421 41.0862 144.258 41.0792C144.099 41.0722 143.998 41.0687 143.956 41.0687H142.314V42.9052Z" fill="#212D3F"/>
<path d="M146.529 44.5219C146.529 44.2358 146.471 43.9934 146.355 43.7946C146.238 43.5923 146.067 43.4319 145.842 43.3133C145.699 43.2365 145.565 43.1877 145.44 43.1668C145.506 43.1389 145.574 43.104 145.644 43.0621C145.714 43.0168 145.778 42.9645 145.836 42.9052C145.961 42.7901 146.056 42.654 146.122 42.4971C146.187 42.3467 146.222 42.1778 146.226 41.9907L146.226 41.9529C146.226 41.5902 146.118 41.2797 145.9 41.0216C145.687 40.7635 145.404 40.5926 145.05 40.5089C144.887 40.4705 144.711 40.4444 144.52 40.4304C144.381 40.4199 144.256 40.4134 144.147 40.4108L144.043 40.4095L144.043 39.9807C144.19 39.9807 144.36 39.9884 144.553 40.0029L144.554 40.0028C144.738 40.0163 144.914 40.0405 145.082 40.0762L145.154 40.0921L145.154 40.0922C145.595 40.1966 145.965 40.4159 146.243 40.7527C146.529 41.0937 146.667 41.5016 146.667 41.953C146.667 42.2017 146.624 42.4396 146.529 42.6594L146.529 42.6595C146.465 42.8112 146.38 42.95 146.275 43.0744C146.464 43.2108 146.62 43.38 146.737 43.5822C146.9 43.86 146.97 44.1797 146.97 44.5219C146.97 44.9851 146.845 45.4038 146.561 45.7408C146.291 46.0612 145.933 46.2737 145.508 46.3851L145.505 46.386L145.502 46.3867C145.317 46.4326 145.12 46.4605 144.914 46.4723L144.914 46.4724C144.727 46.4833 144.55 46.4889 144.381 46.4889H141.012V39.9807H144.043L144.043 40.4095H141.452V46.0601H144.381L144.502 46.0591C144.625 46.0571 144.753 46.0522 144.887 46.0444C145.047 46.0352 145.196 46.0154 145.335 45.9849L145.394 45.9711C145.739 45.8804 146.015 45.713 146.221 45.4689C146.413 45.24 146.516 44.9482 146.528 44.5937L146.529 44.5219ZM145.204 44.5009C145.204 44.3541 145.16 44.2662 145.09 44.1989L145.086 44.1954L145.083 44.1919C145.005 44.113 144.889 44.0505 144.701 44.026L144.687 44.0242L144.673 44.0214C144.608 44.0088 144.538 44.0008 144.463 43.9981C144.371 43.9948 144.289 43.9932 144.218 43.9932H142.754V44.9773H144.34L144.34 45.4061H142.314V43.5644H144.218C144.295 43.5644 144.383 43.5661 144.48 43.5696C144.577 43.5731 144.67 43.5836 144.759 43.601C145.027 43.6359 145.241 43.7336 145.4 43.894C145.563 44.051 145.644 44.2533 145.644 44.5009L145.644 44.5361C145.637 44.7111 145.583 44.8737 145.481 45.0241C145.376 45.1811 145.209 45.2857 144.98 45.3381C144.883 45.359 144.773 45.3764 144.649 45.3904C144.524 45.4008 144.421 45.4061 144.34 45.4061L144.34 44.9773C144.403 44.9773 144.49 44.9731 144.605 44.9636C144.713 44.9512 144.805 44.9365 144.882 44.9201C145.025 44.8871 145.082 44.8347 145.112 44.7904L145.113 44.788C145.176 44.6961 145.204 44.6036 145.204 44.5009ZM144.889 41.9948C144.889 41.8734 144.859 41.7848 144.808 41.7128L144.804 41.7066C144.77 41.6552 144.711 41.6043 144.588 41.5688L144.58 41.5667L144.573 41.5645C144.476 41.533 144.366 41.513 144.239 41.5076L144.239 41.5075C144.076 41.5004 143.986 41.4975 143.956 41.4975H142.754V42.4764H144.072L144.072 42.9052H142.314V41.0687H143.956C143.998 41.0687 144.099 41.0722 144.258 41.0792C144.421 41.0862 144.573 41.1123 144.713 41.1577C144.918 41.217 145.072 41.3216 145.173 41.4716C145.277 41.6216 145.33 41.796 145.33 41.9948C145.33 42.1762 145.281 42.3436 145.184 42.4971L145.166 42.5253C145.072 42.6639 144.931 42.7626 144.742 42.8214L144.706 42.8328C144.621 42.8584 144.522 42.8773 144.41 42.8895C144.286 42.8999 144.173 42.9052 144.072 42.9052L144.072 42.4764C144.157 42.4764 144.255 42.4719 144.367 42.4626C144.469 42.4511 144.544 42.4343 144.598 42.4163L144.603 42.4146L144.608 42.413C144.724 42.3769 144.775 42.3277 144.805 42.2789L144.807 42.2756L144.809 42.2723C144.863 42.1869 144.889 42.0973 144.889 41.9948Z" fill="#212D3F"/>
<path d="M137.192 46.2168C136.568 46.2168 136.034 46.0895 135.591 45.8349C135.149 45.5803 134.809 45.228 134.572 44.778C134.336 44.3281 134.217 43.8118 134.217 43.2293C134.217 42.6364 134.338 42.1167 134.578 41.6702C134.819 41.2237 135.16 40.8767 135.603 40.629C136.049 40.3779 136.579 40.2523 137.192 40.2523C137.821 40.2523 138.357 40.3796 138.799 40.6342C139.246 40.8854 139.585 41.2359 139.818 41.6859C140.055 42.1324 140.174 42.6468 140.174 43.2293C140.174 43.8223 140.055 44.3438 139.818 44.7937C139.582 45.2402 139.24 45.589 138.794 45.8401C138.347 46.0913 137.814 46.2168 137.192 46.2168ZM137.192 45.4791C137.891 45.4791 138.411 45.2716 138.753 44.8565C139.094 44.4379 139.265 43.8956 139.265 43.2293C139.265 42.5457 139.092 42.0016 138.747 41.5969C138.405 41.1923 137.887 40.99 137.192 40.99C136.723 40.99 136.335 41.0859 136.028 41.2778C135.725 41.4661 135.498 41.7295 135.347 42.0678C135.199 42.4027 135.126 42.7898 135.126 43.2293C135.126 43.9095 135.3 44.4554 135.65 44.867C135.999 45.2751 136.513 45.4791 137.192 45.4791Z" fill="#212D3F"/>
<path d="M140.174 43.2293C140.174 42.6468 140.055 42.1324 139.818 41.6859C139.585 41.2359 139.246 40.8854 138.799 40.6342C138.371 40.3876 137.855 40.2604 137.251 40.2526L137.192 40.2523C136.579 40.2523 136.049 40.3779 135.603 40.629C135.16 40.8767 134.819 41.2237 134.578 41.6702L134.556 41.7122C134.33 42.1492 134.217 42.6549 134.217 43.2293C134.217 43.8118 134.336 44.3281 134.572 44.778C134.809 45.228 135.149 45.5803 135.591 45.8349C136.02 46.0816 136.534 46.2088 137.134 46.2165L137.192 46.2168C137.814 46.2168 138.347 46.0913 138.794 45.8401C139.226 45.5968 139.56 45.2619 139.796 44.8353L139.818 44.7937C140.048 44.3578 140.166 43.8548 140.173 43.2847L140.174 43.2293ZM138.825 43.2293C138.825 42.6154 138.671 42.1782 138.408 41.8711L138.407 41.8693C138.172 41.5912 137.797 41.4189 137.192 41.4188C136.783 41.4188 136.484 41.5023 136.266 41.6385L136.265 41.6391C136.04 41.779 135.869 41.9743 135.751 42.2391C135.632 42.5103 135.566 42.8373 135.566 43.2293C135.566 43.8368 135.721 44.2768 135.988 44.5924L136.011 44.619C136.257 44.8899 136.627 45.0503 137.192 45.0503L137.192 45.4791L137.129 45.4785C136.481 45.4661 135.988 45.2623 135.65 44.867C135.311 44.4682 135.137 43.9435 135.126 43.2927L135.126 43.2293C135.126 42.7898 135.199 42.4027 135.347 42.0678C135.489 41.7506 135.697 41.4994 135.972 41.314L136.028 41.2778C136.335 41.0859 136.723 40.99 137.192 40.99L137.257 40.9906C137.919 41.0029 138.416 41.205 138.747 41.5969C139.092 42.0016 139.265 42.5457 139.265 43.2293C139.265 43.8956 139.094 44.4379 138.753 44.8565C138.411 45.2716 137.891 45.4791 137.192 45.4791L137.192 45.0503C137.797 45.0503 138.173 44.875 138.408 44.5893C138.674 44.2638 138.825 43.8228 138.825 43.2293ZM140.614 43.2293C140.614 43.8785 140.484 44.4691 140.21 44.9892L140.21 44.9898L140.21 44.9905C139.934 45.5098 139.533 45.9192 139.014 46.2114C138.488 46.5072 137.875 46.6456 137.192 46.6456C136.506 46.6456 135.891 46.5053 135.367 46.204C134.852 45.9077 134.455 45.4949 134.18 44.9736C133.907 44.4545 133.777 43.8694 133.777 43.2293C133.777 42.5792 133.909 41.9888 134.188 41.4709C134.458 40.9697 134.843 40.5717 135.335 40.2847L135.384 40.2573C135.908 39.9622 136.517 39.8235 137.192 39.8235C137.881 39.8235 138.497 39.9629 139.02 40.2629C139.539 40.5553 139.938 40.9667 140.21 41.4891C140.483 42.0054 140.614 42.5893 140.614 43.2293Z" fill="#212D3F"/>
<path d="M130.484 46.0601V41.121H128.254V40.4095H133.57V41.121H131.34V46.0601H130.484Z" fill="#212D3F"/>
<path d="M133.57 41.121V40.4095H128.254V41.121H130.484V46.0601H131.34V41.121H133.57ZM134.011 41.5498H131.781V46.4889H130.044V41.5498H127.814V39.9807H134.011V41.5498Z" fill="#212D3F"/>
<path d="M122.996 46.0601L123.002 40.4095H123.864V43.1301L126.67 40.4095H127.811L124.865 43.2348L128.195 46.0601H126.949L123.864 43.3394V46.0601H122.996Z" fill="#212D3F"/>
<path d="M123.002 40.4095L122.996 46.0601H123.864V43.3394L126.949 46.0601H128.195L124.865 43.2348L127.811 40.4095H126.67L123.864 43.1301V40.4095H123.002ZM124.304 42.098L126.488 39.9807H128.886L125.513 43.2155L129.371 46.4889H126.78L124.304 44.3061V46.4889H122.555L122.562 39.9807H124.304V42.098Z" fill="#212D3F"/>
<path d="M116.116 46.0601V40.4095H116.972V42.8633H120.517V40.4095H121.373V46.0601H120.517V43.601H116.972V46.0601H116.116Z" fill="#212D3F"/>
<path d="M116.972 40.4095H116.116V46.0601H116.972V43.601H120.517V46.0601H121.373V40.4095H120.517V42.8633H116.972V40.4095ZM121.814 46.4889H120.077V44.0298H117.412V46.4889H115.675V39.9807H117.412V42.4345H120.077V39.9807H121.814V46.4889Z" fill="#212D3F"/>
<path d="M110.878 48.5715L112.094 45.6049L112.112 46.4839L109.358 40.4095H110.266L112.525 45.4898H112.153L114.237 40.4095H115.11L111.733 48.5715H110.878Z" fill="#212D3F"/>
<path d="M110.555 39.9807L112.315 43.938L113.939 39.9807H115.763L112.031 49.0003H110.227L111.436 46.0544L108.682 39.9807H110.555ZM109.358 40.4095L111.913 46.0461L110.878 48.5715H111.733L115.11 40.4095H114.237L112.331 45.0539L110.266 40.4095H109.358Z" fill="#212D3F"/>
<path d="M103.345 46.0601V40.4095H108.347V46.0601H107.491V41.1472H104.201V46.0601H103.345Z" fill="#212D3F"/>
<path d="M108.347 40.4095H103.345V46.0601H104.201V41.1472H107.491V46.0601H108.347V40.4095ZM108.787 46.4889H107.05V41.576H104.641V46.4889H102.905V39.9807H108.787V46.4889Z" fill="#212D3F"/>
<path d="M94.8059 46.0601L94.7943 40.4095H95.656V42.5389H97.129C97.3115 42.5389 97.49 42.5424 97.6647 42.5494C97.8432 42.5564 98.0004 42.5703 98.1363 42.5912C98.4468 42.6436 98.7224 42.736 98.9631 42.8685C99.2076 43.0011 99.3978 43.1842 99.5337 43.4179C99.6734 43.6516 99.7433 43.9446 99.7433 44.2969C99.7433 44.7817 99.6035 45.1637 99.3241 45.4427C99.0485 45.7217 98.6991 45.9031 98.276 45.9868C98.1169 46.0182 97.9442 46.0392 97.7578 46.0496C97.5715 46.0566 97.3872 46.0601 97.2047 46.0601H94.8059ZM95.656 45.4008H97.1698C97.3018 45.4008 97.4493 45.3974 97.6123 45.3904C97.7753 45.3834 97.9189 45.3642 98.0431 45.3328C98.2489 45.2805 98.4352 45.1759 98.6021 45.0189C98.7729 44.8585 98.8583 44.6178 98.8583 44.2969C98.8583 43.9795 98.7768 43.7405 98.6137 43.5801C98.4507 43.4162 98.2333 43.308 97.9616 43.2557C97.8413 43.2313 97.7113 43.2156 97.5715 43.2086C97.4318 43.2016 97.2979 43.1982 97.1698 43.1982H95.656V45.4008Z" fill="#212D3F"/>
<path d="M98.4179 44.2969C98.4179 44.046 98.3538 43.9339 98.3007 43.8816L98.2989 43.88L98.2973 43.8784C98.2074 43.7879 98.0763 43.7149 97.8762 43.6764L97.874 43.6759L97.8718 43.6755C97.7764 43.6562 97.6691 43.6428 97.549 43.6368C97.4161 43.6302 97.2897 43.6269 97.1698 43.6269H96.0964V44.972H97.1698L97.1698 45.4008H95.656V43.1982H97.1698C97.2979 43.1982 97.4318 43.2016 97.5715 43.2086C97.7113 43.2156 97.8413 43.2313 97.9616 43.2557C98.2333 43.308 98.4507 43.4162 98.6137 43.5801C98.7768 43.7405 98.8583 43.9795 98.8583 44.2969L98.8573 44.3561C98.8473 44.6476 98.7622 44.8685 98.6021 45.0189C98.4352 45.1759 98.2489 45.2805 98.0431 45.3328C97.9189 45.3642 97.7753 45.3834 97.6123 45.3904L97.4929 45.395C97.3765 45.3989 97.2688 45.4008 97.1698 45.4008L97.1698 44.972C97.2941 44.972 97.4349 44.9687 97.5929 44.962C97.7327 44.956 97.8444 44.9399 97.9319 44.9178C98.0578 44.8858 98.1786 44.821 98.2961 44.7105L98.2963 44.7103C98.352 44.658 98.4179 44.5477 98.4179 44.2969ZM95.656 40.4095H94.7943L94.8059 46.0601H97.2047L97.342 46.0594C97.4336 46.0586 97.5258 46.0568 97.6185 46.0542L97.7578 46.0496C97.9209 46.0405 98.0735 46.0233 98.2157 45.9981L98.276 45.9868C98.6991 45.9031 99.0485 45.7217 99.3241 45.4427C99.6035 45.1637 99.7433 44.7817 99.7433 44.2969C99.7433 43.9666 99.6819 43.6884 99.5591 43.4624L99.5337 43.4179C99.3978 43.1842 99.2076 43.0011 98.9631 42.8685C98.7224 42.736 98.4468 42.6436 98.1363 42.5912C98.0004 42.5703 97.8432 42.5564 97.6647 42.5494C97.5337 42.5442 97.4005 42.5409 97.2651 42.5395L97.129 42.5389L97.1291 42.1101C97.3172 42.1101 97.5018 42.1137 97.6827 42.121C97.8735 42.1284 98.0483 42.1435 98.2051 42.1677L98.2083 42.1682L98.2114 42.1687C98.5648 42.2283 98.8896 42.3354 99.1799 42.4953C99.4913 42.6646 99.7384 42.9018 99.9141 43.2022C100.103 43.5183 100.184 43.8912 100.184 44.2969C100.184 44.8637 100.018 45.3625 99.6414 45.7398L99.6415 45.7399C99.2985 46.0871 98.8665 46.3076 98.3637 46.4071H98.3635C98.1811 46.443 97.9874 46.4662 97.7832 46.4777L97.779 46.4779L97.7748 46.4781C97.583 46.4853 97.3929 46.4889 97.2048 46.4889H94.3664L94.353 39.9807H96.0964V42.1101H97.1291L97.129 42.5389H95.656V40.4095Z" fill="#212D3F"/>
<path d="M90.6035 46.0601V41.121H88.3735V40.4095H93.6893V41.121H91.4593V46.0601H90.6035Z" fill="#212D3F"/>
<path d="M93.6893 41.121V40.4095H88.3735V41.121H90.6035V46.0601H91.4593V41.121H93.6893ZM94.1297 41.5498H91.8998V46.4889H90.163V41.5498H87.9331V39.9807H94.1297V41.5498Z" fill="#212D3F"/>
<path d="M84.826 46.2168C84.2127 46.2168 83.681 46.0948 83.2307 45.8506C82.7843 45.6064 82.4369 45.2629 82.1885 44.8199C81.9401 44.3769 81.8159 43.8572 81.8159 43.2607C81.8159 42.6434 81.9382 42.1097 82.1827 41.6597C82.4272 41.2098 82.7707 40.8627 83.2132 40.6186C83.6596 40.3744 84.1856 40.2523 84.7911 40.2523C85.4121 40.2523 85.942 40.3814 86.3806 40.6395C86.8192 40.8941 87.1511 41.2604 87.3762 41.7382C87.6013 42.2161 87.7042 42.7864 87.6848 43.4491H86.8114V43.177C86.7959 42.4445 86.6193 41.8917 86.2816 41.5185C85.9478 41.1452 85.4587 40.9586 84.8144 40.9586C84.139 40.9586 83.6208 41.1557 83.2598 41.5499C82.9027 41.944 82.7242 42.5056 82.7242 43.2346C82.7242 43.9461 82.9027 44.499 83.2598 44.8931C83.6208 45.2838 84.1312 45.4791 84.7911 45.4791C85.2414 45.4791 85.6334 45.3867 85.9672 45.2018C86.3049 45.0135 86.5708 44.7431 86.7649 44.3909L87.5625 44.6682C87.3141 45.16 86.9473 45.5419 86.4621 45.814C85.9808 46.0825 85.4354 46.2168 84.826 46.2168ZM82.4214 43.4491V42.8055H87.2248V43.4491H82.4214Z" fill="#212D3F"/>
<path d="M84.7911 39.8235C85.4744 39.8235 86.086 39.9658 86.606 40.2712C87.1258 40.5729 87.5165 41.0074 87.7765 41.5595C88.0362 42.1107 88.1458 42.7495 88.125 43.4613L88.1128 43.8779H86.5991L88.1756 44.426L87.9577 44.8574C87.6709 45.4252 87.2433 45.8708 86.6819 46.1856L86.681 46.186C86.1267 46.4954 85.5045 46.6456 84.8261 46.6456C84.152 46.6456 83.5436 46.5111 83.0164 46.2252L83.0157 46.2248L83.015 46.2244C82.4957 45.9404 82.0894 45.5381 81.8019 45.0254C81.5123 44.5089 81.3755 43.9159 81.3755 43.2607C81.3755 42.5882 81.5089 41.9828 81.7934 41.4592C82.0761 40.9391 82.4784 40.5312 82.9961 40.2455L82.9969 40.2451L82.9976 40.2447C83.5209 39.9584 84.1239 39.8235 84.7911 39.8235ZM84.8743 40.9592C85.4891 40.9704 85.9582 41.1569 86.2816 41.5185C86.5596 41.8257 86.7283 42.2548 86.788 42.8056H82.7471C82.8055 42.2814 82.9763 41.8628 83.2598 41.5499C83.6208 41.1557 84.139 40.9586 84.8144 40.9586L84.8743 40.9592ZM84.8144 41.3874C84.2326 41.3874 83.8477 41.5533 83.5901 41.8335L83.5658 41.8611C83.4486 41.9981 83.3529 42.168 83.2843 42.3768H86.258C86.1845 42.1314 86.0789 41.9432 85.9511 41.8019L85.9504 41.801L85.9495 41.8001C85.7207 41.5443 85.368 41.3874 84.8144 41.3874ZM81.8162 43.3164C81.8237 43.8896 81.9479 44.3907 82.1885 44.8199C82.4369 45.2629 82.7843 45.6064 83.2307 45.8506C83.6669 46.0871 84.1796 46.2091 84.7688 46.2165L84.826 46.2168C85.4164 46.2168 85.9467 46.0908 86.4168 45.8388L86.4621 45.814C86.9473 45.5419 87.3141 45.16 87.5625 44.6682L86.7649 44.3909C86.5708 44.7431 86.3049 45.0135 85.9672 45.2018L85.9039 45.2354C85.5841 45.3978 85.2132 45.4791 84.7911 45.4791L84.7911 45.0503C85.178 45.0503 85.4922 44.9714 85.7489 44.8294C86.0107 44.6832 86.2196 44.4735 86.3768 44.1882L86.5477 43.8779H83.2301C83.3005 44.1882 83.4251 44.4272 83.5898 44.6091C83.849 44.888 84.2279 45.0503 84.7911 45.0503L84.7911 45.4791L84.7296 45.4786C84.0995 45.4667 83.6095 45.2716 83.2598 44.8931C82.9395 44.5395 82.7629 44.0582 82.73 43.4491L87.6848 43.4491L87.6862 43.3872C87.6972 42.7713 87.6008 42.2367 87.3969 41.7832L87.3762 41.7382C87.1511 41.2604 86.8192 40.8941 86.3806 40.6395C85.9557 40.3894 85.4452 40.2605 84.849 40.2527L84.7911 40.2523C84.1856 40.2523 83.6596 40.3744 83.2132 40.6186L83.1721 40.6417C82.7494 40.8845 82.4196 41.2238 82.1827 41.6597C81.9382 42.1097 81.8159 42.6434 81.8159 43.2607L81.8162 43.3164Z" fill="#212D3F"/>
<path d="M78.3264 46.2168C77.6937 46.2168 77.158 46.0895 76.7194 45.8349C76.2808 45.5803 75.947 45.2297 75.718 44.7833C75.4928 44.3333 75.3764 43.8171 75.3686 43.2346C75.3764 42.6416 75.4967 42.1219 75.7296 41.6754C75.9625 41.2255 76.2982 40.8767 76.7369 40.629C77.1755 40.3779 77.7073 40.2523 78.3322 40.2523C78.9688 40.2523 79.5219 40.3918 79.9915 40.6709C80.4651 40.9499 80.7892 41.3319 80.9639 41.8167L80.1255 42.0574C79.978 41.719 79.7431 41.4574 79.421 41.2726C79.1027 41.0842 78.7378 40.99 78.3264 40.99C77.8645 40.99 77.4821 41.0859 77.1794 41.2778C76.8766 41.4661 76.6515 41.7295 76.504 42.0678C76.3565 42.4062 76.2808 42.7951 76.2769 43.2346C76.2847 43.9112 76.4593 44.4554 76.8009 44.867C77.1425 45.2751 77.651 45.4791 78.3264 45.4791C78.7533 45.4791 79.1163 45.3919 79.4151 45.2175C79.7179 45.0396 79.9469 44.7815 80.1022 44.4432L80.9639 44.6734C80.731 45.1757 80.3894 45.5593 79.9391 45.8244C79.4889 46.086 78.9513 46.2168 78.3264 46.2168Z" fill="#212D3F"/>
<path d="M78.3322 39.8235C79.0368 39.8235 79.6719 39.9786 80.221 40.3048C80.7766 40.6326 81.1693 41.0917 81.3794 41.6748L81.5328 42.1004L79.8735 42.5768L79.7201 42.2249C79.6091 41.9702 79.4375 41.7797 79.1974 41.642L79.1948 41.6405L79.1922 41.6389C78.95 41.4956 78.6659 41.4189 78.3264 41.4188C77.9262 41.4188 77.6333 41.5017 77.4196 41.6372L77.418 41.6382L77.4165 41.6391C77.1925 41.7784 77.024 41.9724 76.9094 42.2354C76.7889 42.5118 76.7212 42.8419 76.7172 43.234C76.7249 43.8385 76.8799 44.2791 77.1423 44.5961L77.1649 44.6223C77.403 44.8904 77.7654 45.0503 78.3264 45.0503L78.3264 45.4791L78.2635 45.4785C77.6401 45.4665 77.1635 45.2753 76.8334 44.9046L76.8009 44.867C76.4593 44.4554 76.2847 43.9112 76.2769 43.2346C76.2805 42.8226 76.3473 42.455 76.4772 42.1319L76.504 42.0678C76.6422 41.7507 76.8488 41.4994 77.1235 41.314L77.1794 41.2778C77.4821 41.0859 77.8645 40.99 78.3264 40.99L78.403 40.9911C78.7832 41.0022 79.1226 41.096 79.421 41.2726C79.723 41.4459 79.9482 41.6866 80.0968 41.9948L80.1255 42.0574L80.9639 41.8167C80.7947 41.347 80.4852 40.9739 80.0355 40.6974L79.9915 40.6709C79.5219 40.3918 78.9688 40.2523 78.3322 40.2523C77.7073 40.2523 77.1755 40.3779 76.7369 40.629C76.2982 40.8767 75.9625 41.2255 75.7296 41.6754L75.7081 41.7175C75.4893 42.1544 75.3761 42.6601 75.3686 43.2346C75.3764 43.8171 75.4928 44.3333 75.718 44.7833C75.947 45.2297 76.2808 45.5803 76.7194 45.8349C77.1443 46.0816 77.6603 46.2088 78.2673 46.2165L78.3264 46.2168C78.9317 46.2168 79.4552 46.0941 79.8967 45.8486L79.9391 45.8244C80.3894 45.5593 80.731 45.1757 80.9639 44.6734L80.1022 44.4432C79.9469 44.7815 79.7179 45.0396 79.4151 45.2175L79.3583 45.2492C79.0706 45.4025 78.7266 45.4791 78.3264 45.4791L78.3264 45.0503C78.6909 45.0503 78.9711 44.9763 79.1875 44.8504C79.4073 44.7212 79.5785 44.5331 79.7001 44.2682L79.8543 43.9323L81.5772 44.3926L81.3653 44.8498C81.0986 45.4249 80.6995 45.8779 80.167 46.1914L80.1659 46.192L80.1648 46.1926C79.6342 46.5009 79.0154 46.6456 78.3264 46.6456C77.6332 46.6456 77.0152 46.5058 76.4939 46.2032C75.9826 45.9064 75.5905 45.4944 75.324 44.9748L75.323 44.973L75.3221 44.9711C75.0642 44.4557 74.9367 43.8755 74.9282 43.2401V43.2291C74.9367 42.5825 75.0684 41.9961 75.337 41.4812C75.599 40.9755 75.9776 40.574 76.4681 40.2856L76.516 40.2581C77.0356 39.9612 77.6476 39.8235 78.3322 39.8235Z" fill="#212D3F"/>
</svg>
