<svg width="66" height="49" viewBox="0 0 66 49" fill="none" xmlns="http://www.w3.org/2000/svg">
<path d="M61.8048 1.09399L62.8411 1.29918L63.4628 4.58213L64.9137 14.0206L65.95 21.202V22.4331L65.3282 22.8435L55.587 24.2798L46.0531 25.7161H44.6023L44.1878 25.3057L43.7733 22.228V20.7917L38.5918 21.4072C38.5918 21.4072 37.8086 25.9661 36.5192 28.5887C36.44 28.7498 36.3119 28.999 36.3119 28.999L38.1773 29.6146C38.1773 29.6146 39.7588 30.391 40.6644 31.0509C41.4493 31.6228 41.8551 31.9959 42.5297 32.6924C43.4485 33.6409 43.8658 34.2663 44.6023 35.3598C45.4266 36.5836 45.7171 37.3732 46.4676 38.6427C46.9444 39.4492 47.7112 40.6945 47.7112 40.6945C47.7112 40.6945 49.0628 40.0617 49.991 39.8738C51.2598 39.617 52.0812 39.4606 53.3072 39.8738C53.8212 40.047 54.1089 40.1769 54.5507 40.4894C55.0164 40.8187 55.342 41.0032 55.587 41.5153C55.7637 41.8845 55.7943 42.5412 55.7943 42.5412L53.9289 43.7723L51.0273 45.4138L48.7475 46.8501L46.4676 48.0812C46.4676 48.0812 45.475 48.6758 45.2241 48.6967C44.9731 48.7177 4.60134 48.6967 4.60134 48.6967C4.60134 48.6967 4.4013 48.6787 4.39408 48.4915C4.38686 48.3044 4.38688 47.4044 4.39408 47.2604C4.40129 47.1164 4.60134 47.0552 4.60134 47.0552H44.6023C44.6023 47.0552 43.7527 45.6569 43.1515 44.7982C42.3952 43.7181 41.9537 43.1194 41.0789 42.1308C40.1737 41.108 39.675 40.5048 38.5918 39.6686C37.6175 38.9165 37.0169 38.5446 35.8974 38.0271C35.039 37.6304 34.526 37.4727 33.6176 37.2064C32.9776 37.0188 32.6234 36.864 31.9595 36.796C31.4764 36.7466 31.5923 36.6268 30.7159 36.796C29.8396 36.9652 29.5669 38.3151 28.0216 40.079C26.4762 41.8428 27.1579 41.0978 26.5708 41.7205C25.9459 42.3831 25.6481 42.8218 24.9127 43.3619C24.0406 44.0025 23.4929 44.3949 22.4256 44.593C21.7096 44.7259 21.2779 44.7172 20.5603 44.593C19.7015 44.4445 19.2638 44.1652 18.4877 43.7723C17.2478 43.1447 16.6895 42.5615 15.5861 41.7205C14.6745 41.0257 14.133 40.6657 13.3062 39.8738C13.1417 39.7162 12.8917 39.4634 12.8917 39.4634C12.8917 39.4634 12.3793 39.5641 12.0627 39.6686C11.1672 39.9641 10.8707 40.5634 9.99007 40.8997C9.75128 40.9909 9.61569 41.0399 9.36829 41.1049C8.35126 41.372 7.61261 41.5756 6.67393 41.1049C6.3129 40.9239 5.99167 40.8627 5.84489 40.4894C5.69522 40.1086 6.05215 39.4634 6.05215 39.4634L8.74652 35.9753L10.4046 33.7183C10.4046 33.7183 11.1137 32.282 11.6481 32.0768C12.0329 31.9291 12.6844 32.282 12.6844 32.282L17.6587 35.3598L20.5603 37.2064L22.0111 34.3338L23.6692 29.4094L25.3272 22.8435L26.5708 17.9191C26.5708 17.9191 27.0193 16.5484 27.6071 15.8673C28.0177 15.3914 28.3193 15.1804 28.8506 14.8413C29.5207 14.4138 29.9455 14.2232 30.7159 14.0206C31.9676 13.6915 34.0321 14.0206 34.0321 14.0206L42.737 14.8413C42.737 14.8413 42.3429 12.4676 42.1152 10.9428C41.8523 9.18281 41.569 8.20637 41.4934 6.42878C41.4594 5.6282 41.4934 4.37694 41.4934 4.37694L42.3224 3.96657L50.8201 2.73547L61.8048 1.09399Z" fill="#B7FF02"/>
<path d="M52.0637 15.4567C52.6855 15.2767 53.0678 15.0384 53.3073 15.4567C53.5222 15.8321 53.1232 16.1163 52.8928 16.4826C52.4983 17.1097 52.0869 17.3422 51.4419 17.7137C50.8442 18.058 50.8202 18.0521 49.7839 18.3293C48.7476 18.6064 46.2499 18.8505 43.9806 19.15C40.5872 19.5978 36.203 20.0463 35.2758 20.1759C34.3485 20.3055 34.1763 20.3559 34.0322 20.5863C33.8881 20.8166 33.8742 21.2507 34.2395 21.6122C34.6047 21.9737 36.117 20.8259 36.5193 21.6122C36.7779 22.1177 36.312 23.0485 36.312 23.0485C36.312 23.0485 34.8394 28.2357 34.654 28.7936C34.4685 29.3516 34.4685 29.5136 34.654 29.8196C34.8394 30.1255 35.6645 30.3198 36.312 30.6403C37.4452 31.2012 38.1741 31.3597 39.2137 32.0766C40.1072 32.6928 40.5271 33.1504 41.2863 33.9232C41.8861 34.5339 42.2154 34.8874 42.7371 35.5647C43.5956 36.6794 43.9047 37.4228 44.6024 38.6425C45.4588 40.1395 46.2932 42.3646 46.675 42.541C47.0568 42.7174 47.4022 42.7678 47.7113 42.7462C48.0204 42.7246 49.0672 42.0377 49.9911 41.7203C50.5478 41.529 50.856 41.3712 51.4419 41.3099C52.1708 41.2337 52.715 41.0877 53.3073 41.5151C53.4923 41.6486 53.6963 41.6663 53.7218 41.9254C53.7473 42.1846 52.4612 42.6801 51.6492 43.1565C50.1205 44.0535 49.2864 44.5991 47.7113 45.4136C47.0696 45.7454 46.475 46.3243 46.0532 46.2343C45.6314 46.1443 45.2058 44.8344 44.6024 43.9773C43.7784 42.8068 43.2805 42.1706 42.3226 41.1047C41.4095 40.0888 40.9058 39.4947 39.8354 38.6425C38.7857 37.8067 38.1335 37.4024 36.9338 36.7958C35.9967 36.322 35.4367 36.1228 34.4467 35.7699C33.9651 35.5982 33.6993 35.4842 33.2032 35.3595C31.9455 35.0434 31.0882 34.6685 29.887 35.1544C28.6111 35.6705 28.4723 36.7595 27.6072 37.8217C26.7739 38.8449 26.4264 39.5156 25.5346 40.4892C24.9963 41.0767 24.7271 41.4526 24.0838 41.9254C23.5598 42.3105 23.2131 42.4503 22.633 42.7462C22.4721 42.8282 22.3876 42.8876 22.2184 42.9514C21.6133 43.1796 21.1959 43.0741 20.5604 42.9514C19.6722 42.7798 19.2632 42.3873 18.4878 41.9254C17.2529 41.19 16.7055 40.5669 15.5862 39.6684C14.6041 38.8801 13.5681 37.7649 13.0991 37.6166C12.63 37.4682 12.5572 37.4582 12.0628 37.6166C11.5683 37.7749 10.8795 38.6267 9.99017 39.0529C9.59785 39.2409 8.95388 39.4632 8.95388 39.4632C8.95388 39.4632 8.45936 39.6216 8.3321 39.4632C8.20484 39.3048 8.47025 38.9701 8.74662 38.6425C9.02299 38.3149 11.441 34.9492 11.441 34.9492C11.441 34.9492 11.83 34.2616 12.0628 34.1284C12.2955 33.9952 12.5791 34.132 12.8918 34.3336C13.2045 34.5352 15.6708 36.0844 17.4515 37.2062C18.3418 37.7671 18.8506 38.067 19.7313 38.6425C19.9749 38.8016 20.081 38.9486 20.3531 39.0529C20.806 39.2264 21.2621 39.2509 21.5967 39.0529C21.9312 38.8549 22.9682 36.4737 23.6693 34.744C24.3364 33.0978 24.5989 32.1322 25.1201 30.4351C25.9709 27.6646 26.2837 26.0649 26.9854 23.2537C27.4846 21.2537 28.0217 18.7864 28.2289 18.1241C28.4362 17.4617 28.6965 16.9869 29.2652 16.4826C29.8045 16.0044 30.2314 15.8726 30.9233 15.6619C32.1611 15.2848 34.2395 15.6619 34.2395 15.6619C34.2395 15.6619 39.4038 16.4012 42.7371 16.4826C43.8699 16.5102 43.8933 16.4826 45.6387 16.4826C47.384 16.4826 51.4419 15.6367 52.0637 15.4567Z" fill="#04FCF8"/>
<path d="M60.3538 2.94003H61.3901C61.3901 2.94003 61.9262 5.56067 62.2192 7.2489C62.5933 9.40442 62.7255 10.6252 63.0482 12.7889C63.4545 15.513 64.008 17.0125 64.0845 19.7651C64.1023 20.4059 64.0845 21.4066 64.0845 21.4066L59.7321 22.0222L45.8457 24.074L45.6385 23.8688L45.224 20.5859C45.224 20.5859 46.4836 20.3171 47.2965 20.1755C48.4239 19.9792 49.2928 19.9559 50.1982 19.7651C51.0508 19.5855 51.5248 19.3909 52.2708 18.9444C53.1048 18.4451 53.747 17.8362 54.1361 17.3029C54.5599 16.7219 54.8379 16.1762 54.9651 15.6615C55.0806 15.1945 55.1823 14.8604 54.9651 14.4303C54.8115 14.1263 54.6599 13.9466 54.3433 13.8148C53.747 13.5664 52.838 13.8148 52.0635 14.02C50.8803 14.3334 48.9546 14.4303 48.9546 14.4303C48.9546 14.4303 49.5862 13.8051 49.9909 13.4044C50.3956 13.0038 50.929 12.6665 51.0272 12.3785C51.1254 12.0905 51.144 11.4401 50.8199 11.3526C50.4218 11.2451 50.1401 11.3519 49.7836 11.5578C48.9546 12.0365 47.6445 13.3989 47.0893 13.8148C46.5341 14.2307 46.3126 14.6681 45.6385 14.8407C45.1683 14.9611 44.3949 14.8407 44.3949 14.8407C44.3949 14.8407 43.609 10.9839 43.3586 8.48001C43.2467 7.36081 43.1514 5.60743 43.1514 5.60743L49.5764 4.58151L60.3538 2.94003Z" fill="#04FCF8"/>
<path d="M28.8505 0.0676959C29.4915 -0.0225653 29.8675 -0.0225653 30.5085 0.0676959C31.4465 0.199756 31.9809 0.39797 32.7884 0.888433C33.4244 1.27476 33.8553 1.48606 34.2392 2.11954C34.3323 2.27318 34.4464 2.52991 34.4464 2.52991C34.4464 2.52991 35.9519 2.1959 36.9335 2.11954C37.8211 2.0505 38.748 1.68759 39.2134 2.11954C39.6788 2.55149 39.3541 2.23251 39.4207 2.32472C39.6559 2.65074 39.6279 3.12384 39.4207 3.35064C39.2134 3.57744 38.297 3.76943 37.5553 3.9662C36.758 4.17771 35.4827 4.37656 35.4827 4.37656C35.4827 4.37656 35.6271 4.87283 35.69 5.1973C35.9034 6.29903 35.9041 6.96828 35.69 8.06988C35.511 8.99087 35.3729 9.53773 34.861 10.3269C34.3661 11.0897 33.9558 11.4524 33.2029 11.9684C32.6077 12.3763 31.5448 12.7891 31.5448 12.7891C31.5448 12.7891 29.4755 13.1356 28.2287 12.7891C27.3574 12.547 26.8783 12.3031 26.1561 11.7632C25.3783 11.1818 25.0023 10.7422 24.498 9.91654C24.047 9.17802 23.8608 8.70656 23.669 7.8647C23.4018 6.69221 23.3745 5.95299 23.669 4.78693C23.9324 3.74398 24.2292 3.16025 24.9125 2.32472C25.4539 1.66271 25.8339 1.32841 26.5706 0.888433C27.3818 0.403975 27.9125 0.199756 28.8505 0.0676959Z" fill="#B7FF02"/>
<path d="M33.4104 4.99252H33.8249L34.0322 5.40289C34.0322 5.40289 34.2877 6.93743 34.0322 7.8651C33.8417 8.55655 33.636 8.93209 33.2031 9.50658C32.6887 10.1893 32.3335 10.6019 31.5451 10.9429C31.3105 11.0443 31.1709 11.0841 30.9233 11.1481C29.9835 11.3908 29.3612 11.4411 28.4362 11.1481C27.6023 10.8839 27.1311 10.583 26.5708 9.91694C26.2688 9.5579 25.9367 9.35809 25.9491 8.89102C25.9558 8.63772 26.1563 8.27547 26.1563 8.27547L31.9596 5.60808L33.4104 4.99252Z" fill="#04FCF8"/>
<path d="M9.57564 12.3786C12.7321 12.344 17.0237 12.3367 17.6587 12.3786C17.9314 12.3966 18.0408 12.7216 18.1132 12.9366C18.2041 13.2066 18.0223 13.6565 18.0223 13.6565L17.7496 13.9264C17.295 14.1029 15.8932 14.2252 14.7571 14.2252C9.20467 14.2252 2.20511 14.4664 0.456256 14.2252C0.0114053 14.1639 -0.1199 13.3653 0.114362 12.9366C0.223292 12.7373 0.436425 12.6125 0.663515 12.5838C3.56879 12.2167 6.09451 12.4167 9.57564 12.3786Z" fill="#B7FF02"/>
<path d="M4.39378 18.5342C7.47721 18.5342 18.2801 18.5342 18.2801 18.5342C18.2801 18.5342 18.5959 18.7402 18.6946 18.9446C18.8727 19.3132 18.795 19.6981 18.4874 19.9705C18.3525 20.09 18.0729 20.1757 18.0729 20.1757C18.0729 20.1757 12.0103 20.3582 8.12444 20.3809C6.58661 20.3899 4.47744 20.4959 4.18652 20.3809C4.02292 20.3162 3.87078 20.175 3.772 19.9705C3.59394 19.6019 3.61566 19.2186 3.84111 18.8763C3.96617 18.6865 4.16485 18.5342 4.39378 18.5342Z" fill="#B7FF02"/>
<path d="M28.436 1.91397C29.3759 1.67125 29.9987 1.61913 30.9231 1.91397C31.5443 2.11206 32.0212 2.40712 32.374 2.73471C32.7267 3.06229 32.7885 3.35026 32.7885 3.35026L28.8506 5.4021L25.9489 6.83839C25.9489 6.83839 25.7235 7.03999 25.3272 6.83839C24.9308 6.63679 25.1867 5.82269 25.3272 5.19692C25.4842 4.49728 25.7233 4.12993 26.1562 3.55544C26.6706 2.87267 27.0258 2.46008 27.8143 2.11915C28.0488 2.01774 28.1884 1.97793 28.436 1.91397Z" fill="#04FCF8"/>
<path d="M23.0473 15.661C23.2946 15.5462 24.0218 15.726 24.1127 15.8159C24.1937 15.896 24.2658 15.9483 24.2909 16.0714C24.3396 16.3106 24.2937 17.4681 24.0836 18.3284C23.84 19.3259 22.4764 26.075 22.011 26.741C21.8808 26.9273 21.803 27.0535 21.5965 27.1513C21.2242 27.3276 20.5602 26.9461 20.5602 26.9461C20.5602 26.9461 20.3664 26.8535 20.353 26.741C20.2948 26.2554 20.4847 25.6254 20.5602 25.0995C20.9805 22.1739 21.9667 18.516 22.2183 17.7129C22.4457 16.9868 22.7491 16.0862 22.8401 15.8662C22.8834 15.7613 22.9437 15.7091 23.0473 15.661Z" fill="#B7FF02"/>
<path d="M14.1352 6.22399C16.401 6.17662 18.6585 6.00801 19.9384 6.22399C20.277 6.28111 20.4651 6.51287 20.5602 6.83954C20.6809 7.25418 20.5501 7.70452 20.1457 7.86546C19.3858 8.16787 17.2415 8.02465 15.3787 8.07064C12.8704 8.13257 9.78939 8.2433 8.95372 8.07064C8.84167 8.04749 8.69544 7.91541 8.65924 7.8079C8.56834 7.53792 8.45508 7.01898 8.74646 6.63435C8.81514 6.5437 8.86985 6.50629 8.95372 6.42917C9.29554 6.11483 12.1105 6.26631 14.1352 6.22399Z" fill="#B7FF02"/>
</svg>
