<svg width="219" height="58" viewBox="0 0 219 58" fill="none" xmlns="http://www.w3.org/2000/svg">
<path d="M129 9C114.086 9 102 17.9487 102 29C102 40.0513 114.086 49 129 49C143.914 49 156 40.0513 156 29C156 17.9487 143.914 9 129 9ZM129 39.6846C118.704 39.6846 111 34.0611 111 29.0245C111 23.9878 118.704 18.3643 129 18.3643C139.296 18.3643 147 23.9878 147 29.0245C147 34.0611 139.319 39.6846 129 39.6846Z" fill="#005BFF"/>
<path d="M39.5119 9C28.7434 9 20.0238 17.9432 20 28.9878C20 40.0324 28.7196 48.9756 39.4881 49C50.2566 49 58.9762 40.0568 59 29.0122C59 17.9432 50.2804 9 39.5119 9ZM49.8992 28.9878C49.8992 34.8766 45.2535 39.6414 39.5119 39.6658C33.7703 39.6658 29.1008 34.901 29.1008 29.0122C29.1008 23.1234 33.7465 18.3342 39.4881 18.3342C45.2297 18.3342 49.8992 23.099 49.8992 28.9878Z" fill="#005BFF"/>
<path d="M94.4487 38.7311H78.9885L98.7128 12.1408C99.356 11.265 98.7604 10 97.6646 10H69.3169C66.506 10 64.1 12.6274 64.6955 15.5954C65.1243 17.7849 67.1253 19.2689 69.3169 19.2689H82.0138L62.2657 45.8835C61.6225 46.7593 62.2181 48 63.29 48H94.282C96.4736 48 98.4746 46.516 98.9034 44.3265C99.4989 41.3342 97.2597 38.7311 94.4487 38.7311Z" fill="#005BFF"/>
<path d="M199 14.6462V46.6612C199 46.9529 198.904 47.2446 198.713 47.4877C198.258 48.0711 197.42 48.1683 196.846 47.7064L172.144 27.7974V43.3551C172.144 45.9805 170.013 48.0711 167.428 47.9981C164.939 47.9252 163 45.7617 163 43.2336V11.3402C163 11.0242 163.096 10.7325 163.287 10.4894C163.742 9.9303 164.58 9.83306 165.13 10.2949L189.832 30.204V14.7678C189.832 12.2396 191.771 10.1005 194.237 10.0032C196.846 9.90599 199 12.0209 199 14.6462Z" fill="#005BFF"/>
</svg>
