<svg width="219" height="58" viewBox="0 0 219 58" fill="none" xmlns="http://www.w3.org/2000/svg">
<g clip-path="url(#clip0_3032_608)">
<mask id="mask0_3032_608" style="mask-type:luminance" maskUnits="userSpaceOnUse" x="0" y="0" width="219" height="58">
<path d="M219 0H0V58H219V0Z" fill="white"/>
</mask>
<g mask="url(#mask0_3032_608)">
<path d="M6.79869 41.224L0.114258 16.7509H4.49904L9.63492 35.5475L15.1392 16.7493L19.2266 16.7509L24.7501 35.6474L29.9091 16.7555L34.2938 16.7493L27.6065 41.2197L22.5241 41.2145L17.1846 22.9383L11.8401 41.2192L6.79869 41.224Z" fill="#B820A4"/>
<path d="M37.3179 16.7634H41.4917V41.208H37.3179V16.7634Z" fill="#B820A4"/>
<path d="M50.4152 37.3735H60.5765V41.208H46.3276V16.7634H50.4152V37.3735Z" fill="#B820A4"/>
<path d="M73.4156 16.7916C76.841 16.7916 79.6908 17.9758 81.9361 20.3159C84.2102 22.656 85.3616 25.5601 85.3616 28.9998C85.3616 32.4114 84.2102 35.3154 81.9361 37.6837C79.6908 40.0239 76.841 41.208 73.4156 41.208H63.5996V16.7634H73.4156V16.7916ZM73.4156 37.4017C75.7759 37.4017 77.7046 36.6123 79.1439 35.0334C80.6407 33.4546 81.3892 31.4246 81.3892 29.028C81.3892 26.5751 80.6407 24.6015 79.1439 23.0226C77.6758 21.4437 75.7472 20.6542 73.4156 20.6542H67.716V37.4017H73.4156Z" fill="#B820A4"/>
<path d="M107.382 34.2249C107.382 36.2277 106.663 37.892 105.195 39.2179C103.727 40.5437 101.999 41.2207 99.8697 41.2207H89.1899V16.7634H99.0922C101.136 16.7634 102.863 17.4405 104.273 18.7099C105.713 20.0074 106.404 21.6154 106.404 23.5336C106.404 25.6775 105.54 27.3136 103.871 28.5266C106.058 29.655 107.382 31.686 107.382 34.2249ZM93.306 20.5435V26.9751H99.1205C100.935 26.9751 102.316 25.5647 102.316 23.7593C102.316 21.9539 100.935 20.5435 99.1205 20.5435H93.306ZM99.8979 37.4407C101.798 37.4407 103.295 35.9456 103.295 34.0274C103.295 32.1091 101.798 30.6141 99.8979 30.6141H93.306V37.4689H99.8979V37.4407Z" fill="#B820A4"/>
<path d="M115.356 37.3842H126.41V41.2207H111.269V16.7634H126.237V20.5999H115.356V26.9469H125.345V30.7551H115.356V37.3842Z" fill="#B820A4"/>
<path d="M144.315 41.2207L139.018 32.3066H134.181V41.2207H130.094V16.7634H140.082C142.328 16.7634 144.228 17.525 145.754 19.0765C147.308 20.5717 148.114 22.4335 148.114 24.6338C148.114 27.7368 146.128 30.5858 143.163 31.7142L148.833 41.2207H144.315ZM134.181 20.5434V28.724H140.054C142.241 28.724 143.969 26.9187 143.969 24.6338C143.969 22.377 142.213 20.5434 140.054 20.5434H134.181Z" fill="#B820A4"/>
<path d="M166.163 41.2207L160.895 32.302H156.059V41.2207H151.972V16.7507H161.96C164.206 16.7507 166.105 17.5128 167.631 19.0651C169.185 20.561 169.992 22.4237 169.992 24.6251C169.992 27.7298 168.005 30.5804 165.04 31.7093L170.711 41.2207H166.163ZM156.059 20.5327V28.7176H161.932C164.119 28.7176 165.846 26.9112 165.846 24.6251C165.846 22.3673 164.091 20.5327 161.932 20.5327H156.059Z" fill="#B820A4"/>
<path d="M173.705 16.7537H177.793V41.2209H173.705V16.7537Z" fill="#B820A4"/>
<path d="M186.716 37.3842H197.77V41.2206H182.628V16.7634H197.597V20.5999H186.716V26.9469H196.704V30.7551H186.716V37.3842Z" fill="#B820A4"/>
<path d="M200.62 35.6539L204.16 33.6239C205.168 36.3869 207.212 37.7402 210.349 37.7402C213.458 37.7402 214.983 36.4433 214.983 34.5261C214.983 33.5111 214.552 32.7781 213.746 32.2706C212.939 31.7349 211.443 31.1427 209.313 30.5225C206.923 29.8176 205.743 29.3665 204.073 28.2951C202.462 27.1674 201.655 25.5602 201.655 23.3611C201.655 21.1901 202.433 19.4985 204.016 18.2298C205.571 16.9327 207.471 16.3125 209.687 16.3125C213.688 16.3125 216.768 18.3425 218.381 21.6976L214.926 23.6431C213.889 21.3875 212.134 20.2315 209.687 20.2315C207.297 20.2315 205.772 21.4157 205.772 23.2765C205.772 25.081 206.981 25.9268 210.81 27.0827C211.759 27.3929 212.45 27.6185 212.882 27.7876C213.343 27.9286 213.947 28.1824 214.724 28.4925C215.531 28.8026 216.164 29.1692 216.538 29.4793C217.862 30.4943 219.272 32.1577 219.1 34.4979C219.1 36.6971 218.294 38.4733 216.653 39.7702C215.041 41.0673 212.911 41.6875 210.263 41.6875C205.427 41.6593 201.914 39.4038 200.62 35.6539Z" fill="#B820A4"/>
</g>
</g>
<defs>
<clipPath id="clip0_3032_608">
<rect width="219" height="58" fill="white"/>
</clipPath>
</defs>
</svg>
