<svg width="219" height="58" viewBox="0 0 219 58" fill="none" xmlns="http://www.w3.org/2000/svg">
<path d="M103.006 42.9589H107.211L113.088 21.0479V42.9589H117.818V14H111.32L105.443 35.2397L99.5659 14H92.9243V42.9589H96.9857V21.0479L103.006 42.9589ZM137.6 28.6233C137.6 23.4932 135.068 21.5753 129.812 21.5753C126.515 21.5753 123.935 22.5822 122.406 23.4932V27.5685C123.696 26.5616 126.61 25.5068 129.19 25.5068C131.627 25.5068 132.631 26.4178 132.631 28.5753V29.726H131.866C124.317 29.726 120.877 32.2671 120.877 36.5342C120.877 40.8014 123.409 43.1986 127.279 43.1986C130.194 43.1986 131.484 42.2877 132.392 41.2808H132.631C132.631 41.8082 132.87 42.5753 133.013 42.9589H137.887C137.743 41.2808 137.648 39.5068 137.648 37.8288C137.6 37.8288 137.6 28.6233 137.6 28.6233ZM132.631 37.9726C132.01 38.8836 130.863 39.6507 129.047 39.6507C126.993 39.6507 125.989 38.3562 125.989 36.5822C125.989 34.137 127.661 33.274 132.01 33.274H132.774V38.0206H132.631V37.9726ZM146.153 21.9589H141.566V49H146.535V40.5616C147.825 42.4795 149.593 43.3904 151.791 43.3904C156.665 43.3904 159.962 39.5548 159.962 32.5069C159.962 25.4589 156.76 21.6233 152.03 21.6233C149.737 21.6233 147.825 22.6301 146.392 24.6918C146.44 24.6438 146.153 21.9589 146.153 21.9589ZM150.405 39.5068C147.873 39.5068 146.44 37.3493 146.44 32.6027C146.44 27.7123 147.825 25.5548 150.644 25.5548C153.32 25.5548 154.706 27.7123 154.706 32.4589C154.706 37.3493 153.32 39.5068 150.405 39.5068ZM175.395 42.9589H181.033L173.102 31.6918L180.126 21.9589H175.156L168.132 31.6918V21.9589H163.163V42.9589H168.132V32.6986L175.395 42.9589ZM197.614 41.5685V37.4932C196.085 38.5 193.552 39.411 191.115 39.411C187.532 39.411 186.146 37.7329 185.859 34.137H197.709V31.4521C197.709 24.1644 194.508 21.4795 189.539 21.4795C183.518 21.4795 180.603 26.0822 180.603 32.5069C180.603 39.7945 184.187 43.3904 190.446 43.3904C193.934 43.3425 196.228 42.5753 197.614 41.5685ZM189.586 25.5548C192.023 25.5548 192.788 27.6164 192.788 30.1575V30.5411H185.859C186.003 27.2329 187.293 25.5548 189.586 25.5548ZM215.484 25.9384V21.9589H198.904V25.9384H204.781V42.9589H209.75V25.9384H215.484Z" fill="black"/>
<path d="M63.7917 48C74.3584 48 82.8784 39.5187 82.8784 29C82.8784 18.4813 74.3584 10 63.7917 10C53.2249 10 44.7049 18.4813 44.7049 29C44.6097 39.5187 53.2725 48 63.7917 48Z" fill="#FED42B"/>
<path d="M22.6033 48C33.1448 48 41.6904 39.4934 41.6904 29C41.6904 18.5066 33.1448 10 22.6033 10C12.0617 10 3.51611 18.5066 3.51611 29C3.51611 39.4934 12.0617 48 22.6033 48Z" fill="#FC3F1D"/>
<path d="M25.4794 20.2231H23.4764C20.0214 20.2231 18.2689 21.9587 18.2689 24.5868C18.2689 27.5124 19.4706 28.9504 22.0243 30.6859L24.0272 32.124L18.2689 41H13.562L19.07 32.9174C15.8654 30.6859 14.1128 28.5537 14.1128 24.8347C14.1128 20.1735 17.3175 17 23.4764 17H29.6354V40.8512H25.6296V20.1736H25.4794V20.2231Z" fill="white"/>
<mask id="mask0_3032_668" style="mask-type:luminance" maskUnits="userSpaceOnUse" x="44" y="9" width="39" height="40">
<path d="M63.4667 48.089C74.0898 48.089 82.6553 39.5056 82.6553 28.8602C82.6553 18.2148 74.0898 9.63135 63.4667 9.63135C52.8436 9.63135 44.2781 18.2148 44.2781 28.8602C44.1824 39.5056 52.8915 48.089 63.4667 48.089Z" fill="white"/>
</mask>
<g mask="url(#mask0_3032_668)">
<path d="M54.0401 20.1808L37.1484 42.3347L41.6465 47.4656L54.1837 30.8262L52.8917 39.9371L59.9259 42.3827L68.4914 28.6683C68.1086 31.2098 67.4865 37.1079 73.0851 38.9301C81.8899 41.6154 89.594 25.7432 93.1351 17.6873L88.0149 15.002C84.0432 23.3456 77.9182 32.5525 75.4777 31.9291C73.0373 31.3057 75.2385 23.4895 76.6262 18.4545V18.3107L68.8263 15.6253L59.4952 30.8741L60.7872 22.5304L54.0401 20.1808Z" fill="black"/>
</g>
</svg>
