<svg width="113" height="62" viewBox="0 0 113 62" fill="none" xmlns="http://www.w3.org/2000/svg">
<circle cx="4" cy="4" r="3" transform="matrix(1 0 0 -1 0.5 8)" fill="#E9E9E9" stroke="#E9E9E9" stroke-width="2"/>
<path d="M103.649 61.3311L111.952 57.1816C112.101 57.1075 112.216 57.0486 112.308 57C112.216 56.9514 112.101 56.8925 111.952 56.8184L103.649 52.6689C103.608 52.6485 103.57 52.6326 103.537 52.6162C103.543 52.6523 103.548 52.6926 103.556 52.7373C103.817 54.302 103.953 55.1179 104.007 55.9404C104.053 56.6458 104.053 57.3542 104.007 58.0596C103.953 58.8821 103.817 59.698 103.556 61.2627C103.548 61.3078 103.543 61.3484 103.537 61.3848C103.57 61.3683 103.608 61.3516 103.649 61.3311Z" fill="#E9E9E9" stroke="#E9E9E9"/>
<path d="M21 57H104" stroke="#E9E9E9" stroke-width="1.5" stroke-linecap="square" stroke-dasharray="2 2"/>
<path d="M20.9158 57V57C15.0803 57 12.1626 57 9.95385 55.8196C8.20893 54.8872 6.77981 53.4581 5.84734 51.7131C4.66699 49.5044 4.66699 46.5866 4.66699 40.7512L4.66699 33L4.66699 7.5" stroke="#E9E9E9" stroke-width="1.5" stroke-miterlimit="16" stroke-linecap="square" stroke-dasharray="2 2"/>
</svg>
